<svg id="_3d" data-name="3d" xmlns="http://www.w3.org/2000/svg" width="190" height="225.68" viewBox="0 0 190 225.68">
  <g id="Group_9" data-name="Group 9">
    <g id="Ellipse_3" data-name="Ellipse 3" transform="translate(0 17.824)" fill="none" stroke="#fff" stroke-width="1" opacity="0.5">
      <circle cx="95" cy="95" r="95" stroke="none"/>
      <circle cx="95" cy="95" r="94.5" fill="none"/>
    </g>
    <g id="Path_3" data-name="Path 3" transform="matrix(0.978, 0.208, -0.208, 0.978, 21.888, 0)" fill="none">
      <path d="M95.533,0c.652,0,2.1.171,2.1.171S87.276,1.3,83.47,1.789A102.565,102.565,0,0,0,67.125,5.283,99.661,99.661,0,0,0,30.319,26.6C19.7,36.406,11.459,50.051,6.749,63.07a93.247,93.247,0,0,0-4.428,16.31C1.4,85.077,0,95.011,0,94.885,0,42.482,42.772,0,95.533,0Z" stroke="none"/>
      <path d="M 95.53327941894531 -7.62939453125e-06 C 96.18485260009766 -7.62939453125e-06 97.62888336181641 0.1707229614257812 97.62888336181641 0.1707229614257812 C 97.62888336181641 0.1707229614257812 87.27555847167969 1.301338195800781 83.46985626220703 1.788856506347656 C 78.052978515625 2.4822998046875 72.1080322265625 3.752098083496094 67.12471008300781 5.282768249511719 C 54.88780212402344 9.040885925292969 41.20133590698242 16.56485748291016 30.31914520263672 26.60472869873047 C 19.69535827636719 36.40620422363281 11.45864105224609 50.05051422119141 6.749092102050781 63.07033920288086 C 4.959098815917969 68.0185546875 3.232841491699219 73.76536560058594 2.321548461914062 79.38080596923828 C 1.402565002441406 85.04048156738281 0.01770782470703125 94.88654327392578 0.0001678466796875 94.88654327392578 C 5.340576171875e-05 94.88654327392578 0 94.88615417480469 0 94.88535308837891 C 0 42.48163223266602 42.77172088623047 -7.62939453125e-06 95.53327941894531 -7.62939453125e-06 Z" stroke="none" fill="#fff"/>
    </g>
    <g id="Path_5" data-name="Path 5" transform="matrix(-0.978, -0.208, 0.208, -0.978, 168.173, 225.68)" fill="none">
      <path d="M95.556,0c.652,0,2.155.09,2.155.09l-.847,1.117s-9.567.087-13.374.571A103.137,103.137,0,0,0,67.141,5.252a99.834,99.834,0,0,0-36.814,21.2C19.7,36.192,11.461,49.756,6.751,62.7A92.252,92.252,0,0,0,2.322,78.914C1.4,84.576.936,94.275.936,94.275S0,94.453,0,94.327C0,42.232,42.782,0,95.556,0Z" stroke="none"/>
      <path d="M 95.55576324462891 0 C 96.20748138427734 0 97.71048736572266 0.09000396728515625 97.71048736572266 0.09000396728515625 L 96.86313629150391 1.207145690917969 C 96.86313629150391 1.207145690917969 87.29609680175781 1.293693542480469 83.48950958251953 1.778343200683594 C 78.07135009765625 2.467720031738281 72.12501525878906 3.730056762695312 67.14051055908203 5.251716613769531 C 54.90072250366211 8.98773193359375 41.21104431152344 16.46748352050781 30.3262939453125 26.44831848144531 C 19.70001983642578 36.19214630126953 11.46134948730469 49.7562255859375 6.750694274902344 62.69949340820312 C 4.960273742675781 67.61861419677734 3.233619689941406 73.33164215087891 2.322113037109375 78.91403961181641 C 1.39703369140625 84.57638549804688 0.9361495971679688 94.27471923828125 0.9361495971679688 94.27471923828125 C 0.9361495971679688 94.27471923828125 -1.52587890625e-05 94.45271301269531 0 94.32743072509766 C 1.52587890625e-05 42.23185348510742 42.78180313110352 3.0517578125e-05 95.55576324462891 0 Z" stroke="none" fill="#fff"/>
    </g>
  </g>
  <g id="Group_16" data-name="Group 16" transform="translate(61.007 74.138)">
    <g id="Path_20" data-name="Path 20" transform="translate(-6103.738 -382.207)" fill="none">
      <path d="M6138.047,382.207l-34.309,19.783,34.309,19.723,33.678-19.905Z" stroke="none"/>
      <path d="M 6138.03759765625 386.8299560546875 L 6111.7548828125 401.9850769042969 L 6138.01904296875 417.0834655761719 L 6163.818359375 401.8346252441406 L 6138.03759765625 386.8299560546875 M 6138.046875 382.2072448730469 L 6171.724609375 401.8080444335938 L 6138.046875 421.71337890625 L 6103.73828125 401.9903564453125 L 6138.046875 382.2072448730469 Z" stroke="none" fill="#b06bff"/>
    </g>
    <g id="Path_22" data-name="Path 22" transform="translate(-6119.83 -389.679)" fill="none" stroke-linejoin="bevel">
      <path d="M6187.751,409.136l.065,37.695-33.784,20.251-.11-37.895Z" stroke="none"/>
      <path d="M 6185.75732421875 412.6431274414062 L 6155.92626953125 430.3246459960938 L 6156.0224609375 463.5574645996094 L 6185.814453125 445.6995239257812 L 6185.75732421875 412.6431274414062 M 6187.75146484375 409.1363525390625 L 6187.81640625 446.831298828125 L 6154.03271484375 467.0819702148438 L 6153.9228515625 429.1871337890625 L 6187.75146484375 409.1363525390625 Z" stroke="none" fill="#b06bff"/>
    </g>
    <g id="Path_23" data-name="Path 23" transform="translate(-6106.739 -389.792)" fill="#b06bff">
      <path d="M 6139.4794921875 464.507080078125 L 6108.24072265625 445.7710876464844 L 6108.24072265625 412.1038513183594 L 6139.4794921875 429.5921936035156 L 6139.4794921875 464.507080078125 Z" stroke="none"/>
      <path d="M 6109.74072265625 414.6626586914062 L 6109.74072265625 444.921630859375 L 6137.9794921875 461.8583068847656 L 6137.9794921875 430.4715270996094 L 6109.74072265625 414.6626586914062 M 6106.74072265625 409.5450439453125 L 6140.9794921875 428.712890625 L 6140.9794921875 467.1558227539062 L 6106.74072265625 446.6205444335938 L 6106.74072265625 409.5450439453125 Z" stroke="none" fill="#b06bff"/>
    </g>
    <line id="Line_20" data-name="Line 20" y2="35" transform="translate(65.993 22.186)" fill="none" stroke="#b06bff" stroke-width="3"/>
    <path id="Path_24" data-name="Path 24" d="M0,19,31,1" transform="translate(35.993 55.186)" fill="none" stroke="#b06bff" stroke-width="3"/>
  </g>
</svg>
