<svg xmlns="http://www.w3.org/2000/svg" xmlns:xlink="http://www.w3.org/1999/xlink" width="390" height="390" viewBox="0 0 390 390">
  <defs>
    <clipPath id="clip-Adobe_Spark">
      <rect width="390" height="390"/>
    </clipPath>
  </defs>
  <g id="Adobe_Spark" data-name="Adobe Spark" clip-path="url(#clip-Adobe_Spark)">
    <rect width="390" height="390" fill="rgba(255,255,255,0)"/>
    <g id="adobe-spark-seeklogo.com" transform="translate(43.326 116.245) rotate(-17)">
      <rect id="Rectangle_299" data-name="Rectangle 299" width="176.01" height="170.328" rx="7" transform="translate(34.9 34.9)" fill="#c18600" stroke="#ffb100" stroke-width="6"/>
      <g id="Path_47" data-name="Path 47" transform="translate(-185.438 -170.955)" fill="none">
        <path d="M257.523,320.259c-.57-.277-.277-.847-.277-1.416V306.925c0-.277,0-.847.57-.277a30.623,30.623,0,0,0,18.169,5.682c9.085,0,12.78-4.819,12.78-10.224,0-4.819-2.556-8.515-11.071-13.627l-4.542-2.263c-12.78-7.1-16.753-14.474-16.753-24.128,0-12.78,8.808-22.988,25.544-22.988,7.375,0,13.627,1.14,16.753,2.833.57.277,1.14.57,1.14,1.416v11.364c0,.57-.847.847-1.416.57-3.973-2.556-10.224-3.7-16.183-3.7-9.654,0-12.78,5.389-12.78,9.931,0,4.819,2.263,8.238,11.071,13.057l3.973,1.986c14.2,7.945,17.892,15.613,17.892,24.991,0,13.9-9.931,23.558-26.407,23.558C268.594,324.525,262.342,323.092,257.523,320.259Zm104.766-29.517c0,22.712-15.336,33.782-31.226,33.782a22.215,22.215,0,0,1-2.833-.277v17.03c0,.57-.847.847-1.416.847l-11.641,1.14c-.847,0-1.14-.277-1.14-.847V272.28c0-1.416-.277-5.112-.277-6.822,0-.277-.277-.57,0-.57,5.112-1.709,12.78-4.265,21.572-4.265C352.635,260.639,362.289,273.42,362.289,290.742ZM328.214,273.42v38.6c0,.277,1.986.57,3.4.57,8.515,0,17.03-5.959,17.03-21,0-12.21-5.112-19.016-14.474-19.016C331.617,272.573,328.214,272.85,328.214,273.42Z" stroke="none"/>
        <path d="M 315.1731262207031 343.2634887695312 C 314.3265075683594 343.2634887695312 314.033447265625 342.9867248535156 314.033447265625 342.4169006347656 L 314.033447265625 272.2798767089844 C 314.033447265625 270.8634643554688 313.7566833496094 267.1677856445312 313.7566833496094 265.4582824707031 C 313.7566833496094 265.1815185546875 313.4799194335938 264.8884582519531 313.7566833496094 264.8884582519531 C 318.8688354492188 263.1790161132812 326.5369873046875 260.6229858398438 335.3285217285156 260.6229858398438 C 352.6348876953125 260.6392211914062 362.289306640625 273.4195556640625 362.289306640625 290.7421569824219 C 362.289306640625 313.4536743164062 346.9529418945312 324.5245056152344 331.0630493164062 324.5245056152344 C 329.9233703613281 324.5245056152344 328.2301940917969 324.2477111816406 328.2301940917969 324.2477111816406 L 328.2301940917969 341.2772521972656 C 328.2301940917969 341.8471069335938 327.3836059570312 342.1238403320312 326.8137817382812 342.1238403320312 L 315.1731262207031 343.2634887695312 Z M 334.172607421875 272.5729370117188 C 331.6165771484375 272.5729370117188 328.2139282226562 272.8497314453125 328.2139282226562 273.4195556640625 L 328.2139282226562 312.0209655761719 C 328.2139282226562 312.2977294921875 330.2001647949219 312.5907592773438 331.6165771484375 312.5907592773438 C 340.13134765625 312.5907592773438 348.6461486816406 306.632080078125 348.6461486816406 291.5887451171875 C 348.6461486816406 279.3782653808594 343.5339965820312 272.5729370117188 334.172607421875 272.5729370117188 Z M 275.985595703125 325.110595703125 C 268.5941772460938 324.5245056152344 262.3424072265625 323.091796875 257.5233459472656 320.2589416503906 C 256.9535217285156 319.982177734375 257.24658203125 319.412353515625 257.24658203125 318.842529296875 L 257.24658203125 306.9251098632812 C 257.24658203125 306.6483764648438 257.24658203125 306.0784606933594 257.8163757324219 306.6483459472656 C 263.4983520507812 310.6208190917969 269.4570617675781 312.3302917480469 275.985595703125 312.3302917480469 C 285.0701904296875 312.3302917480469 288.7658996582031 307.51123046875 288.7658996582031 302.1060485839844 C 288.7658996582031 297.2869873046875 286.2098388671875 293.5912475585938 277.695068359375 288.4791259765625 L 273.1527709960938 286.2161560058594 C 260.3724670410156 279.1177368164062 256.3999938964844 271.7426452636719 256.3999938964844 262.0881958007812 C 256.3999938964844 249.3078918457031 265.2077941894531 239.0999450683594 281.9443054199219 239.0999450683594 C 289.3194580078125 239.0999450683594 295.5712280273438 240.2395935058594 298.6971130371094 241.9327697753906 C 299.2669372558594 242.2095642089844 299.8367309570312 242.5025939941406 299.8367309570312 243.3492279052734 L 299.8367309570312 254.7130737304688 C 299.8367309570312 255.2828826904297 298.9901428222656 255.5596771240234 298.4203491210938 255.2828979492188 C 294.4478454589844 252.7268524169922 288.1961059570312 251.5872039794922 282.2373657226562 251.5872039794922 C 272.5829467773438 251.5872039794922 269.4570617675781 256.97607421875 269.4570617675781 261.5183715820312 C 269.4570617675781 266.3374328613281 271.7200622558594 269.7563781738281 280.5278930664062 274.575439453125 L 284.5003967285156 276.5617065429688 C 298.6971130371094 284.5066528320312 302.392822265625 292.1748657226562 302.392822265625 301.552490234375 C 302.392822265625 315.4561767578125 292.4616088867188 325.110595703125 275.985595703125 325.110595703125 Z" stroke="none" fill="#ffb100"/>
      </g>
    </g>
  </g>
</svg>