<svg xmlns="http://www.w3.org/2000/svg" id="av" width="237" height="226.061" viewBox="0 0 237 226.061"><g id="Group_7" data-name="Group 7" transform="translate(0 0)"><g id="Ellipse_1" fill="none" stroke="#fff" stroke-width="1" data-name="Ellipse 1" opacity=".5" transform="translate(0 18.189)"><circle cx="95" cy="95" r="95" stroke="none"/><circle cx="95" cy="95" r="94.5" fill="none"/></g><g id="Ellipse_2" fill="none" stroke="#fff" stroke-width="1" data-name="Ellipse 2" opacity=".5" transform="translate(47 18.189)"><circle cx="95" cy="95" r="95" stroke="none"/><circle cx="95" cy="95" r="94.5" fill="none"/></g><g id="Path_1" fill="none" data-name="Path 1"><path stroke="none" d="M95,0c.648,0,1.265.022,2.142.091,1.691.127,2.973.1-4.421.875-2,.209-5.932.337-9.717.825a101.394,101.394,0,0,0-16.254,3.5,98.944,98.944,0,0,0-36.6,21.348C19.585,36.45,11.395,50.111,6.711,63.147a93.864,93.864,0,0,0-4.4,16.33c-.92,5.7-.944,11.161-1.535,14.384C.192,97.035,0,95.126,0,95A95,95,0,0,1,95,0Z" transform="matrix(0.978, 0.208, -0.208, 0.978, 21.852, 0)"/><path fill="#fff" stroke="none" d="M 95 0 C 95.64791107177734 0 96.26533508300781 0.022491455078125 97.14216613769531 0.09063720703125 C 98.83287048339844 0.2179031372070312 100.1151733398438 0.1938018798828125 92.72069549560547 0.9657821655273438 C 90.72044372558594 1.174369812011719 86.78836059570312 1.30291748046875 83.00390625 1.791015625 C 77.61725616455078 2.485305786132812 71.70551300048828 3.756637573242188 66.75 5.289161682128906 C 54.58140563964844 9.051795959472656 40.97133636474609 16.58487701416016 30.14989471435547 26.63686370849609 C 19.58541870117188 36.45019912719727 11.39466857910156 50.1109733581543 6.711433410644531 63.14654541015625 C 4.931404113769531 68.10073089599609 3.214790344238281 73.8544921875 2.30859375 79.47671508789062 C 1.388900756835938 85.17942810058594 1.3648681640625 90.63764190673828 0.77392578125 93.86102294921875 C 0.1915740966796875 97.03494262695312 7.62939453125e-06 95.12618255615234 7.62939453125e-06 95 C 7.62939453125e-06 42.532958984375 42.53295135498047 0 95 0 Z" transform="matrix(0.978, 0.208, -0.208, 0.978, 21.852, 0)"/></g><g id="Path_2" fill="none" data-name="Path 2"><path stroke="none" d="M95,0c.648,0,1.265.022,2.142.091,1.691.127,2.973.1-4.421.875-2,.209-5.932.337-9.717.825a101.4,101.4,0,0,0-16.254,3.5,98.944,98.944,0,0,0-36.6,21.348C19.585,36.45,11.395,50.111,6.711,63.147a93.864,93.864,0,0,0-4.4,16.33c-.92,5.7-.944,11.161-1.535,14.384C.192,97.035,0,95.126,0,95A95,95,0,0,1,95,0Z" transform="matrix(-0.978, -0.208, 0.208, -0.978, 214.795, 226.061)"/><path fill="#fff" stroke="none" d="M 94.99981689453125 7.62939453125e-06 C 95.00302124023438 7.62939453125e-06 94.99663543701172 7.62939453125e-06 94.99983978271484 7.62939453125e-06 C 95.64775848388672 7.62939453125e-06 96.26519012451172 0.02249908447265625 97.14201354980469 0.09064483642578125 C 98.83271789550781 0.2179183959960938 100.1150283813477 0.1938247680664062 92.72055816650391 0.9658050537109375 C 90.72029113769531 1.174385070800781 86.78822326660156 1.302925109863281 83.00376892089844 1.791038513183594 C 77.61713409423828 2.485313415527344 71.70538330078125 3.756645202636719 66.7498779296875 5.289154052734375 C 54.58132171630859 9.051811218261719 40.97126770019531 16.58489227294922 30.14984130859375 26.63687133789062 C 19.58537292480469 36.45018005371094 11.39463806152344 50.11096954345703 6.711410522460938 63.14654159545898 C 4.931396484375 68.10073089599609 3.214790344238281 73.8544921875 2.308586120605469 79.47669982910156 C 1.388893127441406 85.17942047119141 1.3648681640625 90.63761901855469 0.7739181518554688 93.86100769042969 C 0.1915969848632812 97.03482818603516 0 95.12618255615234 0 94.99999237060547 C -1.52587890625e-05 42.5361442565918 42.53726959228516 7.62939453125e-06 94.99981689453125 7.62939453125e-06 Z" transform="matrix(-0.978, -0.208, 0.208, -0.978, 214.795, 226.061)"/></g></g><g id="Icon_feather-headphones" data-name="Icon feather-headphones" transform="translate(83.105 78.598)"><path id="Path_12" fill="none" stroke="#ffa1ff" stroke-linecap="round" stroke-linejoin="round" stroke-width="3" d="M4.5,65.072V40.843C4.5,20.772,20.347,4.5,39.895,4.5S75.29,20.772,75.29,40.843V65.072" data-name="Path 12" transform="translate(-4.5 -4.5)"/></g><path id="Polygon_8" fill="#ffa1ff" d="M9.613,4.5a3,3,0,0,1,5.2,0l7.017,12.164a3,3,0,0,1-2.6,4.5H5.194a3,3,0,0,1-2.6-4.5Z" data-name="Polygon 8" transform="translate(132.317 122.851) rotate(90)"/><g id="Rectangle_29" fill="none" stroke="#ffa1ff" stroke-width="3" data-name="Rectangle 29" transform="translate(135.932 122.515)"><rect width="13.365" height="24.948" stroke="none" rx="4"/><rect width="10.365" height="21.948" x="1.5" y="1.5" fill="none" rx="2.5"/></g><g id="Rectangle_30" fill="none" stroke="#ffa1ff" stroke-width="3" data-name="Rectangle 30" transform="translate(87.817 122.515)"><rect width="13.365" height="24.948" stroke="none" rx="4"/><rect width="10.365" height="21.948" x="1.5" y="1.5" fill="none" rx="2.5"/></g></svg>