<svg xmlns="http://www.w3.org/2000/svg" id="cross" width="211.147" height="217.009" viewBox="0 0 211.147 217.009"><g id="Group_17" data-name="Group 17"><g id="Group_11" data-name="Group 11"><g id="Polygon_2" fill="none" data-name="Polygon 2" opacity=".5"><path stroke="none" d="M161.25,0,215,91.5,161.25,183H53.75L0,91.5,53.75,0Z" transform="translate(197 2) rotate(90)"/><path fill="#fff" stroke="none" d="M 54.32235717773438 1 L 1.1597900390625 91.5 L 54.32235717773438 182 L 160.6776428222656 182 L 213.8402099609375 91.5 L 160.6776428222656 1 L 54.32235717773438 1 M 53.75 0 L 161.25 0 L 215 91.5 L 161.25 183 L 53.75 183 L 0 91.5 L 53.75 0 Z" transform="translate(197 2) rotate(90)"/></g><g id="Ellipse_4" fill="none" stroke="#fff" stroke-width="1" data-name="Ellipse 4" opacity=".5"><ellipse cx="105.5" cy="108.5" stroke="none" rx="105.5" ry="108.5"/><ellipse cx="105.5" cy="108.5" fill="none" rx="105" ry="108"/></g><path id="Path_7" fill="none" stroke="#fff" stroke-width="1" d="M.854.026.008.546,0,106.9" data-name="Path 7" transform="translate(14.5 55.5)"/><line id="Line_14" x1="90.767" y2="53.396" fill="none" stroke="#fff" stroke-width="1" data-name="Line 14" transform="translate(14.733 2.5)"/><path id="Path_8" fill="none" stroke="#fff" stroke-width="1" d="M91.575.165a115.455,115.455,0,0,1,12.612,38.917c1.891,13.364,1.082,29.059-4.01,45.936a104.23,104.23,0,0,1-9.38,22.155,107.313,107.313,0,0,1-36.58,38.069C27.248,161.871-.28,160.985-.28,160.985" data-name="Path 8" transform="translate(105.5 55.5)"/></g><g id="Group_13" data-name="Group 13" transform="translate(57.423 66.34)"><g id="Path_14" fill="none" data-name="Path 14"><path stroke="none" d="M3.663,0H92.492a3.663,3.663,0,0,1,3.663,3.663V92.492a3.663,3.663,0,0,1-3.663,3.663H3.663A3.663,3.663,0,0,1,0,92.492V3.663A3.663,3.663,0,0,1,3.663,0Z"/><path fill="#8251ff" stroke="none" d="M 3.663032531738281 2.000007629394531 C 2.74603271484375 2.000007629394531 1.999992370605469 2.74603271484375 1.999992370605469 3.663032531738281 L 1.999992370605469 92.49179077148438 C 1.999992370605469 93.40879058837891 2.74603271484375 94.15483093261719 3.663032531738281 94.15483093261719 L 92.49175262451172 94.15483093261719 C 93.40875244140625 94.15483093261719 94.15477752685547 93.40879058837891 94.15477752685547 92.49179077148438 L 94.15477752685547 3.663032531738281 C 94.15477752685547 2.74603271484375 93.40875244140625 2.000007629394531 92.49175262451172 2.000007629394531 L 3.663032531738281 2.000007629394531 M 3.663032531738281 7.62939453125e-06 L 92.49175262451172 7.62939453125e-06 C 94.51477813720703 7.62939453125e-06 96.15477752685547 1.639991760253906 96.15477752685547 3.663032531738281 L 96.15477752685547 92.49179077148438 C 96.15477752685547 94.51483154296875 94.51477813720703 96.15483093261719 92.49175262451172 96.15483093261719 L 3.663032531738281 96.15483093261719 C 1.639991760253906 96.15483093261719 -7.62939453125e-06 94.51483154296875 -7.62939453125e-06 92.49179077148438 L -7.62939453125e-06 3.663032531738281 C -7.62939453125e-06 1.639991760253906 1.639991760253906 7.62939453125e-06 3.663032531738281 7.62939453125e-06 Z"/></g><line id="Line_19" y1="14.652" fill="none" stroke="#212226" stroke-width="3" data-name="Line 19" transform="translate(0.916 56.319)"/><ellipse id="Ellipse_7" cx=".999" cy=".916" fill="#8251ff" data-name="Ellipse 7" rx=".999" ry=".916" transform="translate(0 55.403)"/><ellipse id="Ellipse_8" cx=".999" cy=".916" fill="#8251ff" data-name="Ellipse 8" rx=".999" ry=".916" transform="translate(0 70.056)"/></g><g id="Rectangle_31" fill="none" stroke="#8251ff" stroke-width="1.5" data-name="Rectangle 31" transform="translate(69.33 93.477)"><rect width="12.374" height="12.374" stroke="none" rx="3"/><rect width="10.874" height="10.874" x=".75" y=".75" fill="none" rx="2.25"/></g><g id="Rectangle_32" fill="none" stroke="#8251ff" stroke-width="1.5" data-name="Rectangle 32" transform="translate(84.56 93.477)"><rect width="11.422" height="12.374" stroke="none" rx="3"/><rect width="9.922" height="10.874" x=".75" y=".75" fill="none" rx="2.25"/></g><g id="Rectangle_33" fill="none" stroke="#8251ff" stroke-width="1.5" data-name="Rectangle 33" transform="translate(84.56 78.247)"><rect width="11.422" height="12.374" stroke="none" rx="3"/><rect width="9.922" height="10.874" x=".75" y=".75" fill="none" rx="2.25"/></g><g id="Rectangle_34" fill="none" stroke="#8251ff" stroke-width="1.5" data-name="Rectangle 34" transform="translate(84.56 107.755)"><rect width="11.422" height="12.374" stroke="none" rx="3"/><rect width="9.922" height="10.874" x=".75" y=".75" fill="none" rx="2.25"/></g><g id="Rectangle_35" fill="none" stroke="#8251ff" stroke-width="1.5" data-name="Rectangle 35" transform="translate(84.56 123.936)"><rect width="11.422" height="11.422" stroke="none" rx="3"/><rect width="9.922" height="9.922" x=".75" y=".75" fill="none" rx="2.25"/></g><g id="Rectangle_36" fill="none" stroke="#8251ff" stroke-width="1.5" data-name="Rectangle 36" transform="translate(84.56 138.214)"><rect width="11.422" height="12.374" stroke="none" rx="3"/><rect width="9.922" height="10.874" x=".75" y=".75" fill="none" rx="2.25"/></g><g id="Rectangle_37" fill="none" stroke="#8251ff" stroke-width="1.5" data-name="Rectangle 37" transform="translate(98.837 107.755)"><rect width="12.374" height="12.374" stroke="none" rx="3"/><rect width="10.874" height="10.874" x=".75" y=".75" fill="none" rx="2.25"/></g><g id="Rectangle_38" fill="none" stroke="#8251ff" stroke-width="1.5" data-name="Rectangle 38" transform="translate(115.019 107.755)"><rect width="11.422" height="12.374" stroke="none" rx="3"/><rect width="9.922" height="10.874" x=".75" y=".75" fill="none" rx="2.25"/></g><g id="Rectangle_39" fill="none" stroke="#8251ff" stroke-width="1.5" data-name="Rectangle 39" transform="translate(129.297 107.755)"><rect width="12.374" height="12.374" stroke="none" rx="3"/><rect width="10.874" height="10.874" x=".75" y=".75" fill="none" rx="2.25"/></g><g id="Rectangle_40" fill="none" stroke="#8251ff" stroke-width="1.5" data-name="Rectangle 40" transform="translate(115.019 123.936)"><rect width="11.422" height="11.422" stroke="none" rx="3"/><rect width="9.922" height="9.922" x=".75" y=".75" fill="none" rx="2.25"/></g><g id="Rectangle_41" fill="none" stroke="#8251ff" stroke-width="1.5" data-name="Rectangle 41" transform="translate(115.019 138.214)"><rect width="11.422" height="12.374" stroke="none" rx="3"/><rect width="9.922" height="10.874" x=".75" y=".75" fill="none" rx="2.25"/></g></g></svg>