<svg xmlns="http://www.w3.org/2000/svg" id="cryptic" width="190" height="190" viewBox="0 0 190 190"><g id="Group_6" data-name="Group 6"><g id="Rectangle_18" fill="none" stroke="#fff" stroke-width="1" data-name="Rectangle 18" opacity=".5"><rect width="157" height="157" stroke="none"/><rect width="156" height="156" x=".5" y=".5" fill="none"/></g><g id="Rectangle_20" fill="none" stroke="#fff" stroke-width="1" data-name="Rectangle 20" opacity=".5" transform="translate(33 33)"><rect width="157" height="157" stroke="none"/><rect width="156" height="156" x=".5" y=".5" fill="none"/></g><g id="Rectangle_21" fill="none" stroke="#fff" stroke-width="1" data-name="Rectangle 21" transform="translate(33 33)"><rect width="124" height="124" stroke="none"/><rect width="123" height="123" x=".5" y=".5" fill="none"/></g></g><g id="Group_14" data-name="Group 14" transform="translate(60 59)"><g id="Ellipse_9" fill="none" stroke="#ff2684" stroke-width="2" data-name="Ellipse 9" transform="translate(2 3)"><ellipse cx="33" cy="33.5" stroke="none" rx="33" ry="33.5"/><ellipse cx="33" cy="33.5" fill="none" rx="32" ry="32.5"/></g><circle id="Ellipse_10" cx="4.5" cy="4.5" r="4.5" fill="#ff2684" data-name="Ellipse 10" transform="translate(61)"/><circle id="Ellipse_11" cx="1" cy="1" r="1" fill="#ff2684" data-name="Ellipse 11" transform="translate(58 2)"/><circle id="Ellipse_12" cx="2" cy="2" r="2" fill="#ff2684" data-name="Ellipse 12" transform="translate(66 11)"/><circle id="Ellipse_13" cx="4" cy="4" r="4" fill="#ff2684" data-name="Ellipse 13" transform="translate(0 43)"/><ellipse id="Ellipse_14" cx="2" cy="2.5" fill="#ff2684" data-name="Ellipse 14" rx="2" ry="2.5" transform="translate(10 67)"/><ellipse id="Ellipse_15" cx="1.5" cy="2" fill="#ff2684" data-name="Ellipse 15" rx="1.5" ry="2" transform="translate(62 58)"/></g><g id="Icon_feather-lock" data-name="Icon feather-lock" transform="translate(78 76)"><path id="Path_27" fill="none" stroke="#ff2684" stroke-linecap="round" stroke-linejoin="round" stroke-width="2" d="M7.2,16.5H26.129c1.493,0,2.7,1.651,2.7,3.689V33.1c0,2.037-1.21,3.689-2.7,3.689H7.2c-1.493,0-2.7-1.651-2.7-3.689V20.189c0-2.037,1.21-3.689,2.7-3.689Z" data-name="Path 27" transform="translate(0 -1.334)"/><path id="Path_28" fill="none" stroke="#ff2684" stroke-linecap="round" stroke-linejoin="round" stroke-width="2" d="M10.5,15.166V9.759a6.759,6.759,0,0,1,13.518,0v5.407" data-name="Path 28" transform="translate(-0.593 0)"/></g></svg>