<svg xmlns="http://www.w3.org/2000/svg" xmlns:xlink="http://www.w3.org/1999/xlink" width="390" height="390" viewBox="0 0 390 390">
  <defs>
    <clipPath id="clip-Designathon_Icon">
      <rect width="390" height="390"/>
    </clipPath>
  </defs>
  <g id="Designathon_Icon" data-name="Designathon Icon" clip-path="url(#clip-Designathon_Icon)">
    <rect width="390" height="390" fill="rgba(255,255,255,0)"/>
    <g id="Group_74" data-name="Group 74" transform="translate(-277.446 -288.166)" opacity="0.585">
      <g id="Ellipse_33" data-name="Ellipse 33" transform="translate(323.889 387.089) rotate(-11)" fill="none" stroke="#00e8a6" stroke-width="4">
        <circle cx="129.5" cy="129.5" r="129.5" stroke="none"/>
        <circle cx="129.5" cy="129.5" r="127.5" fill="none"/>
      </g>
      <g id="Rectangle_91" data-name="Rectangle 91" transform="translate(544.045 512.668) rotate(124)" fill="#006a4c" stroke="#00e8a6" stroke-linecap="round" stroke-linejoin="round" stroke-width="4">
        <rect width="44.727" height="156.012" stroke="none"/>
        <rect x="2" y="2" width="40.727" height="152.012" fill="none"/>
      </g>
      <path id="Icon_open-pencil" data-name="Icon open-pencil" d="M94.426,0,78.688,15.738l31.475,31.475L125.9,31.475l-6.507-6.507ZM62.951,31.475,0,94.426V125.9H31.475L94.426,62.951Z" transform="translate(402.173 431.198) rotate(-11)" fill="#006a4c" stroke="#00e8a6" stroke-linecap="round" stroke-linejoin="round" stroke-width="4"/>
      <line id="Line_52" data-name="Line 52" x1="18.545" y2="18.545" transform="translate(409.103 442.075) rotate(-11)" fill="none" stroke="#00e8a6" stroke-linecap="round" stroke-width="3"/>
      <line id="Line_53" data-name="Line 53" x1="9.818" y2="9.818" transform="translate(426.206 444.307) rotate(-11)" fill="none" stroke="#00e8a6" stroke-linecap="round" stroke-width="3"/>
      <line id="Line_54" data-name="Line 54" x1="18.545" y2="18.545" transform="translate(425.194 453.394) rotate(-11)" fill="none" stroke="#00e8a6" stroke-linecap="round" stroke-width="3"/>
      <line id="Line_55" data-name="Line 55" x1="9.818" y2="9.818" transform="translate(444.877 457.347) rotate(-11)" fill="none" stroke="#00e8a6" stroke-linecap="round" stroke-width="3"/>
      <line id="Line_56" data-name="Line 56" x1="18.545" y2="18.545" transform="translate(487.866 495.666) rotate(-11)" fill="none" stroke="#00e8a6" stroke-linecap="round" stroke-width="3"/>
      <line id="Line_57" data-name="Line 57" x1="9.818" y2="9.818" transform="translate(507.549 499.62) rotate(-11)" fill="none" stroke="#00e8a6" stroke-linecap="round" stroke-width="3"/>
      <line id="Line_58" data-name="Line 58" x1="18.545" y2="18.545" transform="translate(508.657 508.294) rotate(-11)" fill="none" stroke="#00e8a6" stroke-linecap="round" stroke-width="3"/>
      <line id="Line_59" data-name="Line 59" x1="9.818" y2="9.818" transform="translate(525.761 510.527) rotate(-11)" fill="none" stroke="#00e8a6" stroke-linecap="round" stroke-width="3"/>
      <ellipse id="Ellipse_43" data-name="Ellipse 43" cx="11.695" cy="11.694" rx="11.695" ry="11.694" transform="matrix(-0.174, -0.985, 0.985, -0.174, 490.271, 372.604)" fill="#00e8a6"/>
      <ellipse id="Ellipse_44" data-name="Ellipse 44" cx="22.698" cy="22.696" rx="22.698" ry="22.696" transform="matrix(-0.174, -0.985, 0.985, -0.174, 325.225, 524.187)" fill="#00e8a6"/>
      <ellipse id="Ellipse_45" data-name="Ellipse 45" cx="4.698" cy="4.696" rx="4.698" ry="4.696" transform="matrix(-0.174, -0.985, 0.985, -0.174, 339.825, 535.072)" fill="#00e8a6"/>
      <ellipse id="Ellipse_46" data-name="Ellipse 46" cx="7.198" cy="7.196" rx="7.198" ry="7.196" transform="matrix(-0.174, -0.985, 0.985, -0.174, 417.788, 341.677)" fill="#00e8a6"/>
      <ellipse id="Ellipse_47" data-name="Ellipse 47" cx="2.588" cy="2.587" rx="2.588" ry="2.587" transform="matrix(-0.174, -0.985, 0.985, -0.174, 412.42, 346.596)" fill="#00e8a6"/>
      <ellipse id="Ellipse_48" data-name="Ellipse 48" cx="1.543" cy="1.543" rx="1.543" ry="1.543" transform="matrix(-0.174, -0.985, 0.985, -0.174, 420.51, 345.615)" fill="#00e8a6"/>
    </g>
  </g>
</svg>
