<svg xmlns="http://www.w3.org/2000/svg" width="222.385" height="222.707" viewBox="0 0 222.385 222.707"><g id="design" transform="translate(0 0.338)"><g id="Group_8" data-name="Group 8" transform="translate(0)"><g id="Rectangle_22" fill="none" stroke="#fff" stroke-width="1" data-name="Rectangle 22" opacity=".5" transform="translate(0 111.016) rotate(-45)"><rect width="157" height="157" stroke="none"/><rect width="156" height="156" x=".5" y=".5" fill="none"/></g><line id="Line_1" x1="111" y2="111" fill="none" stroke="#fff" stroke-width="1" data-name="Line 1" transform="translate(0.369 0.016)"/><line id="Line_2" x1="111" y2="111" fill="none" stroke="#fff" stroke-width="1" data-name="Line 2" transform="translate(111.032 111.016)"/></g><g id="Group_15" data-name="Group 15" transform="translate(65.869 79.516)"><g id="Rectangle_42" fill="none" stroke="#00e8a6" stroke-width="2" data-name="Rectangle 42"><rect width="91" height="57" stroke="none" rx="4"/><rect width="89" height="55" x="1" y="1" fill="none" rx="3"/></g><rect id="Rectangle_43" width="91" height="4" fill="#00e8a6" data-name="Rectangle 43" rx="2" transform="translate(0 59)"/></g><g id="Icon_map-art-gallery" fill="none" data-name="Icon map-art-gallery"><path stroke="none" d="M14.861,4.32C6.023,4.32.72,11.41.72,14.955s1.767,6.2,5.3,6.2,5.3.886,5.3,3.545a6.049,6.049,0,0,0,6.187,6.2c11.49,0,16.792-6.2,16.792-12.407C34.3,7.865,25.465,4.32,14.861,4.32Zm-2.21,3.545a2.216,2.216,0,1,1-2.21,2.215,2.212,2.212,0,0,1,2.21-2.215Zm7.07,0a2.216,2.216,0,1,1-2.209,2.215,2.212,2.212,0,0,1,2.209-2.215Zm7.071,3.545a2.216,2.216,0,1,1-2.209,2.216A2.212,2.212,0,0,1,26.792,11.41ZM6.465,13.183A2.215,2.215,0,1,1,4.256,15.4,2.211,2.211,0,0,1,6.465,13.183Zm11.047,8.862a2.659,2.659,0,1,1-2.651,2.66,2.654,2.654,0,0,1,2.651-2.66Z" transform="translate(89.271 93.152)"/><path fill="#00e8a6" stroke="none" d="M 14.86130714416504 4.319999694824219 C 6.022895812988281 4.319999694824219 0.7199974060058594 11.40991973876953 0.7199974060058594 14.95522880554199 C 0.7199974060058594 18.50053977966309 2.487396240234375 21.15934944152832 6.022895812988281 21.15934944152832 C 9.558406829833984 21.15934944152832 11.32650566101074 22.04515075683594 11.32650566101074 24.70396041870117 C 11.32650566101074 28.24856948852539 13.97760581970215 30.90737915039062 17.51310729980469 30.90737915039062 C 29.0033073425293 30.90737915039062 34.30550765991211 24.70396041870117 34.30550765991211 18.50053977966309 C 34.30480575561523 7.86530876159668 25.46500587463379 4.319999694824219 14.86130714416504 4.319999694824219 M 12.65170669555664 12.29642868041992 C 11.43145561218262 12.29642868041992 10.44210624694824 11.30426979064941 10.44210624694824 10.08051872253418 C 10.44055557250977 8.858638763427734 11.4298267364502 7.866859436035156 12.65170669555664 7.86530876159668 C 13.87357711791992 7.866859436035156 14.86284637451172 8.858638763427734 14.86130714416504 10.08051872253418 C 14.86130714416504 11.30496978759766 13.87195587158203 12.29642868041992 12.65170669555664 12.29642868041992 M 19.72130584716797 12.29642868041992 C 18.49942588806152 12.29448890686035 17.51046562194824 11.30239868164062 17.51240539550781 10.08051872253418 C 17.51085662841797 8.858909606933594 18.49970626831055 7.867238998413086 19.72130584716797 7.86530876159668 C 20.94318771362305 7.866859436035156 21.93244552612305 8.858638763427734 21.93090629577637 10.08051872253418 C 21.93284606933594 11.30266952514648 20.94345664978027 12.29487991333008 19.72130584716797 12.29642868041992 M 26.79230499267578 15.84103965759277 C 25.57038497924805 15.83987998962402 24.58108520507812 14.84774971008301 24.58340644836426 13.62582969665527 C 24.58108520507812 12.40378952026367 25.57027626037598 11.41145896911621 26.79230499267578 11.40991973876953 C 28.01472663879395 11.41107940673828 29.00454711914062 12.40339851379395 29.00260543823242 13.62582969665527 C 29.00454711914062 14.8481388092041 28.01461601257324 15.84026908874512 26.79230499267578 15.84103965759277 M 6.465095520019531 17.61333847045898 C 5.245555877685547 17.61333847045898 4.255496978759766 16.62117958068848 4.255496978759766 15.39742851257324 C 4.254335403442383 14.17582893371582 5.243495941162109 13.18446922302246 6.465095520019531 13.18292999267578 C 7.686746597290039 13.18408012390137 8.675935745239258 14.17577934265137 8.674005508422852 15.39742851257324 C 8.674005508422852 16.62188911437988 7.684646606445312 17.61333847045898 6.465095520019531 17.61333847045898 M 17.51240539550781 27.36275863647461 C 16.04796600341797 27.36275863647461 14.86130714416504 26.17259979248047 14.86130714416504 24.70465850830078 C 14.85859680175781 23.23801040649414 16.04576683044434 22.04707908630371 17.51240539550781 22.04515075683594 C 18.97683715820312 22.04515075683594 20.16350555419922 23.234619140625 20.16350555419922 24.70465850830078 C 20.16350555419922 26.17259979248047 18.97683715820312 27.36275863647461 17.51240539550781 27.36275863647461 M 14.86130714416504 2.319999694824219 C 21.04785537719727 2.319999694824219 26.01393508911133 3.466400146484375 29.62161636352539 5.72736930847168 C 31.74667739868164 7.059160232543945 33.3930549621582 8.780069351196289 34.5150260925293 10.8422794342041 C 35.70290756225586 13.02565956115723 36.30531692504883 15.60223007202148 36.30550765991211 18.50041007995605 C 36.30550765991211 20.37984848022461 35.90353775024414 22.19649887084961 35.11076736450195 23.90002059936523 C 34.28592681884766 25.67244911193848 33.07330703735352 27.24025917053223 31.50657653808594 28.5599193572998 C 28.12994575500488 31.40404891967773 23.29107666015625 32.90737915039062 17.51310729980469 32.90737915039062 C 15.26796722412109 32.90737915039062 13.19562721252441 32.06916809082031 11.67782592773438 30.54714965820312 C 10.16155624389648 29.02666854858398 9.326505661010742 26.95151901245117 9.326505661010742 24.70396041870117 C 9.326505661010742 23.8724193572998 9.09312629699707 23.72620964050293 8.938695907592773 23.62945938110352 C 8.596376419067383 23.41499900817871 7.812646865844727 23.15934944152832 6.022895812988281 23.15934944152832 C 3.716056823730469 23.15934944152832 1.800106048583984 22.28609848022461 0.482177734375 20.63401031494141 C -0.670654296875 19.18889999389648 -1.280002593994141 17.22519874572754 -1.280002593994141 14.95522880554199 C -1.280002593994141 13.71366882324219 -0.8611221313476562 12.29037857055664 -0.06864547729492188 10.83922004699707 C 0.7098770141601562 9.413629531860352 1.815567016601562 8.027290344238281 3.128875732421875 6.830080032348633 C 4.613395690917969 5.476808547973633 6.305526733398438 4.401889801025391 8.158266067504883 3.63517951965332 C 10.2671070098877 2.762489318847656 12.52233695983887 2.319999694824219 14.86130714416504 2.319999694824219 Z M 12.65170669555664 10.29642868041992 C 12.76727676391602 10.29642868041992 12.86130714416504 10.19956970214844 12.86130714416504 10.08051872253418 C 12.8614559173584 9.961702346801758 12.76760673522949 9.866788864135742 12.65160942077637 9.865327835083008 C 12.59433364868164 9.866018295288086 12.54473495483398 9.887002944946289 12.50412559509277 9.927709579467773 C 12.4628963470459 9.969039916992188 12.44202613830566 10.01959991455078 12.44210624694824 10.07798004150391 C 12.44210624694824 10.19956970214844 12.53613662719727 10.29642868041992 12.65170669555664 10.29642868041992 Z M 19.72172164916992 10.29640769958496 C 19.77887153625488 10.2956428527832 19.82837295532227 10.27465057373047 19.86891555786133 10.23399925231934 C 19.91014671325684 10.19265937805176 19.93100738525391 10.14208030700684 19.93090629577637 10.08368873596191 L 19.93090629577637 10.07799911499023 C 19.93105506896973 9.961828231811523 19.83743858337402 9.867021560668945 19.72163772583008 9.865333557128906 C 19.60585784912109 9.867029190063477 19.51225662231445 9.961843490600586 19.51240539550781 10.07798004150391 L 19.51240539550781 10.08370018005371 C 19.5122184753418 10.19988822937012 19.60586166381836 10.29474449157715 19.72172164916992 10.29640769958496 Z M 26.79264450073242 13.84103202819824 C 26.85018920898438 13.84061431884766 26.90002250671387 13.81971168518066 26.94076538085938 13.77886962890625 C 26.98189544677734 13.73764991760254 27.0026969909668 13.68722915649414 27.00260543823242 13.62899971008301 L 27.00260543823242 13.62265968322754 C 27.00270652770996 13.56424903869629 26.98183631896973 13.51366996765137 26.94058609008789 13.47231864929199 C 26.89934539794922 13.43096923828125 26.84881591796875 13.40996932983398 26.7904052734375 13.40991973876953 C 26.73662567138672 13.40999031066895 26.68627548217773 13.43092918395996 26.64517593383789 13.47216033935547 C 26.60407638549805 13.51338958740234 26.58329772949219 13.56381988525391 26.58340644836426 13.62203025817871 L 26.58340644836426 13.62962913513184 C 26.58329772949219 13.68766021728516 26.6040153503418 13.73793029785156 26.64499664306641 13.77902984619141 C 26.68560791015625 13.81974983215332 26.73527336120605 13.84061241149902 26.79264450073242 13.84103202819824 Z M 6.465095520019531 15.61333847045898 C 6.580286026000977 15.61333847045898 6.674005508422852 15.5164794921875 6.674005508422852 15.39742851257324 C 6.674097061157227 15.33625030517578 6.653366088867188 15.2859992980957 6.612396240234375 15.24491882324219 C 6.571416854858398 15.2038402557373 6.52122688293457 15.18297958374023 6.463216781616211 15.18292999267578 C 6.350545883178711 15.18307876586914 6.255386352539062 15.27845001220703 6.255496978759766 15.39552879333496 C 6.255496978759766 15.5164794921875 6.349525451660156 15.61333847045898 6.465095520019531 15.61333847045898 Z M 17.51240539550781 25.36275863647461 C 17.87142562866211 25.36275863647461 18.16350555419922 25.06753921508789 18.16350555419922 24.70465850830078 C 18.16350555419922 24.34099960327148 17.87142562866211 24.04515075683594 17.51240539550781 24.04515075683594 C 17.2790355682373 24.04545974731445 17.12381553649902 24.16585922241211 17.05229568481445 24.23760986328125 C 16.98078727722168 24.30934906005859 16.86086654663086 24.46495056152344 16.86130714416504 24.70095825195312 C 16.86130714416504 25.06753921508789 17.15338706970215 25.36275863647461 17.51240539550781 25.36275863647461 Z" transform="translate(89.271 93.152)"/></g><g id="Icon_awesome-paint-brush" fill="#212226" data-name="Icon awesome-paint-brush"><path stroke="none" d="M 6.045135498046875 23.18155860900879 C 4.382245063781738 23.18155860900879 3.100195169448853 22.58087921142578 2.23459529876709 21.39618873596191 C 1.750306844711304 20.73337936401367 1.402817130088806 19.90589332580566 1.20209801197052 18.95026206970215 C 1.794427871704102 19.3226146697998 2.219920635223389 19.49605941772461 2.608725309371948 19.49605941772461 C 3.338595390319824 19.49605941772461 3.976195335388184 19.05744934082031 4.233075141906738 18.37864875793457 C 4.613205432891846 17.37697982788086 5.12470531463623 16.67556953430176 5.79649543762207 16.23517990112305 C 6.277276992797852 15.92001342773438 6.846102714538574 15.72867870330811 7.565555572509766 15.64299297332764 L 11.09008979797363 18.58005142211914 C 11.05817604064941 21.46328353881836 9.177390098571777 23.18155860900879 6.045135498046875 23.18155860900879 Z M 13.5517749786377 15.6248197555542 C 13.36410140991211 15.6248197555542 13.16916656494141 15.60394859313965 12.95012950897217 15.5598669052124 L 10.30504322052002 13.35575675964355 C 10.14752197265625 12.95467567443848 10.06781482696533 12.54740428924561 10.06781482696533 12.14225959777832 C 10.06781482696533 10.66388893127441 10.31560516357422 10.37467956542969 15.37061500549316 5.95328950881958 C 16.70183563232422 4.788929462432861 18.35858535766602 3.339839220046997 20.39275550842285 1.522699356079102 C 20.76865577697754 1.18493926525116 21.20573616027832 0.9999992847442627 21.62564468383789 0.9999992847442627 C 22.37376594543457 0.9999992847442627 23.18123435974121 1.512409329414368 23.18123435974121 2.340229272842407 C 23.18123435974121 2.91333794593811 22.9079704284668 3.524313449859619 22.63932418823242 4.047448635101318 C 20.24874114990234 8.508888244628906 18.35136604309082 11.8528995513916 16.86225509643555 13.67199897766113 C 15.52526569366455 15.30527973175049 14.63599491119385 15.6248197555542 13.5517749786377 15.6248197555542 Z" transform="translate(116.995 93.973)"/><path fill="#00e8a6" stroke="none" d="M 6.045135498046875 22.18155860900879 C 7.469367027282715 22.18155860900879 9.803359031677246 21.75697898864746 10.06621074676514 19.02852058410645 L 7.271828651428223 16.69990921020508 C 6.345290184020996 16.89303207397461 5.67405891418457 17.39998054504395 5.16834545135498 18.73258018493652 C 4.789445877075195 19.73382186889648 3.887051343917847 20.40394020080566 2.832191944122314 20.48727035522461 C 2.898468971252441 20.5991039276123 2.968419075012207 20.70549964904785 3.042025327682495 20.80624008178711 C 3.718215227127075 21.731689453125 4.700545310974121 22.18155860900879 6.045135498046875 22.18155860900879 M 13.5517749786377 14.6248197555542 C 14.25332546234131 14.6248197555542 14.88557529449463 14.50801944732666 16.08845520019531 13.03856945037842 C 17.52553749084473 11.28303718566895 19.3926944732666 7.988990783691406 21.7536449432373 3.583070755004883 C 21.93949127197266 3.220526933670044 22.18123435974121 2.704092502593994 22.18123435974121 2.340229272842407 C 22.18123435974121 2.171699285507202 21.90084457397461 1.999999284744263 21.62564468383789 1.999999284744263 C 21.45790481567383 1.999999284744263 21.2476749420166 2.098909378051758 21.06328582763672 2.264589309692383 L 21.05895614624023 2.268469333648682 C 19.0208854675293 4.089099407196045 17.36194610595703 5.540099143981934 16.02897453308105 6.705989360809326 C 13.65735530853271 8.780349731445312 12.22585487365723 10.03241920471191 11.5417652130127 10.84945964813232 C 11.08660507202148 11.39306926727295 11.06781482696533 11.56618976593018 11.06781482696533 12.14225959777832 C 11.06781482696533 12.34790897369385 11.09848213195801 12.55656814575195 11.15927219390869 12.76589679718018 L 13.37898540496826 14.61555004119873 C 13.43949699401855 14.6217794418335 13.49675464630127 14.6248197555542 13.5517749786377 14.6248197555542 M 6.045135498046875 24.18155860900879 C 1.791185259819031 24.18155860900879 -0.0002347259578527883 20.7630786895752 -0.0007047259714454412 16.87372016906738 C 0.4616752862930298 17.18921852111816 2.084005355834961 18.49605941772461 2.608725309371948 18.49605941772461 C 2.919965267181396 18.49605941772461 3.18681526184082 18.3179988861084 3.297805309295654 18.02470970153809 C 4.273555278778076 15.45352935791016 5.993185043334961 14.73185920715332 7.888025283813477 14.61000919342041 L 12.04468536376953 18.07382965087891 C 12.05980491638184 18.21788024902344 12.09050559997559 18.3581485748291 12.09050559997559 18.50502967834473 C 12.09050559997559 22.11431884765625 9.627964973449707 24.18155860900879 6.045135498046875 24.18155860900879 Z M 13.5517749786377 16.62481880187988 C 13.18575572967529 16.62481880187988 12.83483505249023 16.56672859191895 12.4943151473999 16.48171997070312 L 9.480134963989258 13.97004890441895 C 9.221315383911133 13.40611934661865 9.067814826965332 12.78930950164795 9.067814826965332 12.14225959777832 C 9.067814826965332 9.603669166564941 10.07238483428955 9.401049613952637 19.72655487060547 0.7769293189048767 C 20.23851585388184 0.3169093132019043 20.90964508056641 -6.95495600666618e-07 21.62564468383789 -6.95495600666618e-07 C 22.95326614379883 -6.95495600666618e-07 24.18123435974121 0.9748193025588989 24.18123435974121 2.340229272842407 C 24.18123435974121 3.102509260177612 23.87329483032227 3.834569215774536 23.52474594116211 4.512319087982178 C 18.18545532226562 14.4772891998291 16.48519515991211 16.62481880187988 13.5517749786377 16.62481880187988 Z" transform="translate(116.995 93.973)"/></g><circle id="Ellipse_16" cx="1" cy="1" r="1" fill="#00e8a6" data-name="Ellipse 16" transform="translate(94.869 107.516)"/><circle id="Ellipse_17" cx="1" cy="1" r="1" fill="#00e8a6" data-name="Ellipse 17" transform="translate(100.869 102.516)"/><circle id="Ellipse_18" cx="1" cy="1" r="1" fill="#00e8a6" data-name="Ellipse 18" transform="translate(107.869 102.516)"/><circle id="Ellipse_19" cx="1" cy="1" r="1" fill="#00e8a6" data-name="Ellipse 19" transform="translate(114.869 106.516)"/><circle id="Ellipse_20" cx="1.5" cy="1.5" r="1.5" fill="#00e8a6" data-name="Ellipse 20" transform="translate(104.869 116.516)"/></g></svg>