<svg xmlns="http://www.w3.org/2000/svg" xmlns:xlink="http://www.w3.org/1999/xlink" width="390" height="390" viewBox="0 0 390 390"><defs><clipPath id="clip-Designathon_Icon"><rect width="390" height="390"/></clipPath></defs><g id="Designathon_Icon" clip-path="url(#clip-Designathon_Icon)" data-name="Designathon Icon"><rect width="390" height="390" fill="rgba(255,255,255,0)"/><g id="Group_74" data-name="Group 74" opacity=".585" transform="translate(-277.446 -288.166)"><g id="Ellipse_33" fill="none" stroke="#00e8a6" stroke-width="4" data-name="Ellipse 33" transform="translate(323.889 387.089) rotate(-11)"><circle cx="129.5" cy="129.5" r="129.5" stroke="none"/><circle cx="129.5" cy="129.5" r="127.5" fill="none"/></g><g id="Rectangle_91" fill="#006a4c" stroke="#00e8a6" stroke-linecap="round" stroke-linejoin="round" stroke-width="4" data-name="Rectangle 91" transform="translate(544.045 512.668) rotate(124)"><rect width="44.727" height="156.012" stroke="none"/><rect width="40.727" height="152.012" x="2" y="2" fill="none"/></g><path id="Icon_open-pencil" fill="#006a4c" stroke="#00e8a6" stroke-linecap="round" stroke-linejoin="round" stroke-width="4" d="M94.426,0,78.688,15.738l31.475,31.475L125.9,31.475l-6.507-6.507ZM62.951,31.475,0,94.426V125.9H31.475L94.426,62.951Z" data-name="Icon open-pencil" transform="translate(402.173 431.198) rotate(-11)"/><line id="Line_52" x1="18.545" y2="18.545" fill="none" stroke="#00e8a6" stroke-linecap="round" stroke-width="3" data-name="Line 52" transform="translate(409.103 442.075) rotate(-11)"/><line id="Line_53" x1="9.818" y2="9.818" fill="none" stroke="#00e8a6" stroke-linecap="round" stroke-width="3" data-name="Line 53" transform="translate(426.206 444.307) rotate(-11)"/><line id="Line_54" x1="18.545" y2="18.545" fill="none" stroke="#00e8a6" stroke-linecap="round" stroke-width="3" data-name="Line 54" transform="translate(425.194 453.394) rotate(-11)"/><line id="Line_55" x1="9.818" y2="9.818" fill="none" stroke="#00e8a6" stroke-linecap="round" stroke-width="3" data-name="Line 55" transform="translate(444.877 457.347) rotate(-11)"/><line id="Line_56" x1="18.545" y2="18.545" fill="none" stroke="#00e8a6" stroke-linecap="round" stroke-width="3" data-name="Line 56" transform="translate(487.866 495.666) rotate(-11)"/><line id="Line_57" x1="9.818" y2="9.818" fill="none" stroke="#00e8a6" stroke-linecap="round" stroke-width="3" data-name="Line 57" transform="translate(507.549 499.62) rotate(-11)"/><line id="Line_58" x1="18.545" y2="18.545" fill="none" stroke="#00e8a6" stroke-linecap="round" stroke-width="3" data-name="Line 58" transform="translate(508.657 508.294) rotate(-11)"/><line id="Line_59" x1="9.818" y2="9.818" fill="none" stroke="#00e8a6" stroke-linecap="round" stroke-width="3" data-name="Line 59" transform="translate(525.761 510.527) rotate(-11)"/><ellipse id="Ellipse_43" cx="11.695" cy="11.694" fill="#00e8a6" data-name="Ellipse 43" rx="11.695" ry="11.694" transform="matrix(-0.174, -0.985, 0.985, -0.174, 490.271, 372.604)"/><ellipse id="Ellipse_44" cx="22.698" cy="22.696" fill="#00e8a6" data-name="Ellipse 44" rx="22.698" ry="22.696" transform="matrix(-0.174, -0.985, 0.985, -0.174, 325.225, 524.187)"/><ellipse id="Ellipse_45" cx="4.698" cy="4.696" fill="#00e8a6" data-name="Ellipse 45" rx="4.698" ry="4.696" transform="matrix(-0.174, -0.985, 0.985, -0.174, 339.825, 535.072)"/><ellipse id="Ellipse_46" cx="7.198" cy="7.196" fill="#00e8a6" data-name="Ellipse 46" rx="7.198" ry="7.196" transform="matrix(-0.174, -0.985, 0.985, -0.174, 417.788, 341.677)"/><ellipse id="Ellipse_47" cx="2.588" cy="2.587" fill="#00e8a6" data-name="Ellipse 47" rx="2.588" ry="2.587" transform="matrix(-0.174, -0.985, 0.985, -0.174, 412.42, 346.596)"/><ellipse id="Ellipse_48" cx="1.543" cy="1.543" fill="#00e8a6" data-name="Ellipse 48" rx="1.543" ry="1.543" transform="matrix(-0.174, -0.985, 0.985, -0.174, 420.51, 345.615)"/></g></g></svg>