<svg xmlns="http://www.w3.org/2000/svg" xmlns:xlink="http://www.w3.org/1999/xlink" width="390" height="390" viewBox="0 0 390 390">
  <defs>
    <clipPath id="clip-gd_final">
      <rect width="390" height="390"/>
    </clipPath>
  </defs>
  <g id="gd_final" data-name="gd final" clip-path="url(#clip-gd_final)">
    <rect width="390" height="390" fill="rgba(255,255,255,0)"/>
    <g id="Group_88" data-name="Group 88" transform="matrix(0.985, -0.174, 0.174, 0.985, -932.955, -2224.895)">
      <g id="Group_89" data-name="Group 89" transform="translate(10.908 11.718)">
        <rect id="Rectangle_102" data-name="Rectangle 102" width="89.421" height="47.265" rx="23.633" transform="translate(583.253 2623.623)" fill="#bc7cbc"/>
        <rect id="Rectangle_103" data-name="Rectangle 103" width="89.421" height="22.994" transform="translate(583.253 2647.894)" fill="#bc7cbc"/>
        <ellipse id="Ellipse_62" data-name="Ellipse 62" cx="22.355" cy="21.717" rx="22.355" ry="21.717" transform="translate(604.97 2572.525)" fill="#bc7cbc"/>
        <path id="Path_397" data-name="Path 397" d="M23.633,0H65.788A23.718,23.718,0,0,1,82.595,7.018,23.633,23.633,0,0,1,65.788,47.265H23.633A23.633,23.633,0,0,1,23.633,0Z" transform="translate(686.726 2623.623)" fill="#bc7cbc"/>
        <rect id="Rectangle_105" data-name="Rectangle 105" width="89.421" height="22.994" transform="translate(686.727 2647.894)" fill="#bc7cbc"/>
        <circle id="Ellipse_63" data-name="Ellipse 63" cx="21.717" cy="21.717" r="21.717" transform="translate(709.721 2572.525)" fill="#bc7cbc"/>
        <g id="Path_43" data-name="Path 43" transform="translate(612.747 2474.73)" fill="none" stroke-linecap="round">
          <path d="M87.228,0H16.586A16.586,16.586,0,0,0,0,16.586V57.743A16.586,16.586,0,0,0,16.586,74.328V89.272L37.576,74.328H87.228a16.586,16.586,0,0,0,16.586-16.586V16.586A16.586,16.586,0,0,0,87.228,0Z" stroke="none"/>
          <path d="M 16.585693359375 3.999992370605469 C 13.22393035888672 3.999992370605469 10.06339263916016 5.309120178222656 7.686264038085938 7.686256408691406 C 5.30914306640625 10.06336975097656 3.999992370605469 13.22392272949219 3.999992370605469 16.585693359375 L 3.999992370605469 57.74277496337891 C 3.999992370605469 61.10453796386719 5.30914306640625 64.26509094238281 7.686264038085938 66.64220428466797 C 10.06339263916016 69.01934051513672 13.22393035888672 70.32847595214844 16.585693359375 70.32847595214844 L 20.585693359375 70.32847595214844 L 20.585693359375 81.51447296142578 L 36.29785919189453 70.32847595214844 L 87.22844696044922 70.32847595214844 C 90.5902099609375 70.32847595214844 93.75076293945312 69.01934051513672 96.12789154052734 66.64220428466797 C 98.50501251220703 64.26509094238281 99.81416320800781 61.10453796386719 99.81416320800781 57.74277496337891 L 99.81416320800781 16.585693359375 C 99.81416320800781 13.22392272949219 98.50501251220703 10.06336975097656 96.12789154052734 7.686256408691406 C 93.75076293945312 5.309120178222656 90.5902099609375 3.999992370605469 87.22844696044922 3.999992370605469 L 16.585693359375 3.999992370605469 M 16.585693359375 -7.62939453125e-06 L 87.22844696044922 -7.62939453125e-06 C 96.38848114013672 -7.62939453125e-06 103.8141632080078 7.4256591796875 103.8141632080078 16.585693359375 L 103.8141632080078 57.74277496337891 C 103.8141632080078 66.90280914306641 96.38848114013672 74.32847595214844 87.22844696044922 74.32847595214844 L 37.57627868652344 74.32847595214844 L 16.585693359375 89.2723388671875 L 16.585693359375 74.32847595214844 C 7.425674438476562 74.32847595214844 -7.62939453125e-06 66.90280914306641 -7.62939453125e-06 57.74277496337891 L -7.62939453125e-06 16.585693359375 C -7.62939453125e-06 7.4256591796875 7.425674438476562 -7.62939453125e-06 16.585693359375 -7.62939453125e-06 Z" stroke="none" fill="#bc7cbc"/>
        </g>
        <g id="Path_42" data-name="Path 42" transform="translate(657.591 2463.673)" fill="#7c457c" stroke-linecap="round">
          <path d="M 85.22846221923828 85.39340209960938 L 67.39781951904297 72.69920349121094 L 66.87709045410156 72.32848358154297 L 66.23787689208984 72.32848358154297 L 16.585693359375 72.32848358154297 C 12.6897087097168 72.32848358154297 9.026924133300781 70.81129455566406 6.27204704284668 68.05641937255859 C 3.517170190811157 65.30154418945312 2.000000953674316 61.63875961303711 2.000000953674316 57.74277496337891 L 2.000000953674316 16.58569717407227 C 2.000000953674316 12.68971157073975 3.517170190811157 9.02692699432373 6.27204704284668 6.272050380706787 C 9.026924133300781 3.517173290252686 12.6897087097168 2.000004053115845 16.585693359375 2.000004053115845 L 87.22846221923828 2.000004053115845 C 91.12445068359375 2.000004053115845 94.7872314453125 3.517173290252686 97.54210662841797 6.272050380706787 C 100.2969665527344 9.02692699432373 101.8141555786133 12.68971157073975 101.8141555786133 16.58569717407227 L 101.8141555786133 57.74277496337891 C 101.8141555786133 61.63875961303711 100.2969665527344 65.30154418945312 97.54209136962891 68.05641937255859 C 94.7872314453125 70.81129455566406 91.12443542480469 72.32848358154297 87.22846221923828 72.32848358154297 L 85.22846221923828 72.32848358154297 L 85.22846221923828 74.32848358154297 L 85.22846221923828 85.39340209960938 Z" stroke="none"/>
          <path d="M 16.585693359375 3.999992370605469 C 13.22393035888672 3.999992370605469 10.06337738037109 5.309120178222656 7.686264038085938 7.686256408691406 C 5.309127807617188 10.06336975097656 3.999992370605469 13.22392272949219 3.999992370605469 16.585693359375 L 3.999992370605469 57.74277496337891 C 3.999992370605469 61.10453796386719 5.309127807617188 64.26509094238281 7.686264038085938 66.64220428466797 C 10.06337738037109 69.01934051513672 13.22393035888672 70.32847595214844 16.585693359375 70.32847595214844 L 67.51629638671875 70.32847595214844 L 83.22844696044922 81.51447296142578 L 83.22844696044922 70.32847595214844 L 87.22844696044922 70.32847595214844 C 90.5902099609375 70.32847595214844 93.75076293945312 69.01934051513672 96.12789154052734 66.64220428466797 C 98.50501251220703 64.26509094238281 99.81416320800781 61.10453796386719 99.81416320800781 57.74277496337891 L 99.81416320800781 16.585693359375 C 99.81416320800781 13.22392272949219 98.50501251220703 10.06336975097656 96.12789154052734 7.686256408691406 C 93.75076293945312 5.309120178222656 90.5902099609375 3.999992370605469 87.22844696044922 3.999992370605469 L 16.585693359375 3.999992370605469 M 16.585693359375 -7.62939453125e-06 L 87.22844696044922 -7.62939453125e-06 C 96.38848114013672 -7.62939453125e-06 103.8141632080078 7.4256591796875 103.8141632080078 16.585693359375 L 103.8141632080078 57.74277496337891 C 103.8141632080078 66.90280914306641 96.38848114013672 74.32847595214844 87.22844696044922 74.32847595214844 L 87.22844696044922 89.2723388671875 L 66.23787689208984 74.32847595214844 L 16.585693359375 74.32847595214844 C 7.4256591796875 74.32847595214844 -7.62939453125e-06 66.90280914306641 -7.62939453125e-06 57.74277496337891 L -7.62939453125e-06 16.585693359375 C -7.62939453125e-06 7.4256591796875 7.4256591796875 -7.62939453125e-06 16.585693359375 -7.62939453125e-06 Z" stroke="none" fill="#bc7cbc"/>
        </g>
        <ellipse id="Ellipse_64" data-name="Ellipse 64" cx="6.759" cy="6.983" rx="6.759" ry="6.983" transform="translate(680.443 2494.013)" fill="#bc7cbc"/>
        <ellipse id="Ellipse_65" data-name="Ellipse 65" cx="6.759" cy="6.983" rx="6.759" ry="6.983" transform="translate(697.893 2494.418)" fill="#bc7cbc"/>
        <ellipse id="Ellipse_66" data-name="Ellipse 66" cx="7.198" cy="7.198" rx="7.198" ry="7.198" transform="translate(713.579 2494.069)" fill="#bc7cbc"/>
      </g>
    </g>
  </g>
</svg>