<svg xmlns="http://www.w3.org/2000/svg" xmlns:xlink="http://www.w3.org/1999/xlink" width="344.866" height="397.866" viewBox="0 0 344.866 397.866">
  <defs>
    <clipPath id="clip-path">
      <rect id="Rectangle_314" data-name="Rectangle 314" width="250.008" height="250.008"/>
    </clipPath>
  </defs>
  <g id="Polygon_14" data-name="Polygon 14" transform="translate(344.433 0.432) rotate(90)" fill="none" opacity="0.5">
    <path d="M297.75,0,397,172,297.75,344H99.25L0,172,99.25,0Z" stroke="none"/>
    <path d="M 99.82757568359375 1 L 1.154541015625 172 L 99.8275146484375 343 L 297.1724853515625 343 L 395.845458984375 172 L 297.1724853515625 1 L 99.82757568359375 1 M 99.25006103515625 0 L 297.75 0 L 397 172 L 297.75 344 L 99.25 344 L 0 172 L 99.25006103515625 0 Z" stroke="none" fill="#fff"/>
  </g>
  <line id="Line_88" data-name="Line 88" x1="172" y2="298" transform="translate(0.433 0.432)" fill="none" stroke="#fff" stroke-width="1" opacity="0.5"/>
  <line id="Line_89" data-name="Line 89" x1="172" y1="298" transform="translate(172.433 0.432)" fill="none" stroke="#fff" stroke-width="1" opacity="0.5"/>
  <line id="Line_90" data-name="Line 90" x2="344" transform="translate(0.433 298.432)" fill="none" stroke="#fff" stroke-width="1"/>
  <line id="Line_91" data-name="Line 91" y1="99" x2="172" transform="translate(172.433 298.432)" fill="none" stroke="#fff" stroke-width="1"/>
  <line id="Line_92" data-name="Line 92" y1="100" x2="172" transform="translate(0.433 0.432)" fill="none" stroke="#fff" stroke-width="1"/>
  <line id="Line_93" data-name="Line 93" x1="172" y1="100" transform="translate(172.433 0.432)" fill="none" stroke="#fff" stroke-width="1"/>
  <g id="Group_Discussion_Icon" data-name="Group Discussion Icon" transform="matrix(0.985, 0.174, -0.174, 0.985, 71.035, 54.121)" clip-path="url(#clip-path)">
    <rect id="Rectangle_313" data-name="Rectangle 313" width="250.008" height="250.008" fill="rgba(255,255,255,0)"/>
    <g id="Group_88" data-name="Group 88" transform="matrix(0.985, -0.174, 0.174, 0.985, 52.55, 66.895)">
      <g id="Group_89" data-name="Group 89" transform="translate(0 0)">
        <rect id="Rectangle_102" data-name="Rectangle 102" width="57.323" height="30.299" rx="15.15" transform="translate(0 102.535)" fill="#bc7cbc"/>
        <rect id="Rectangle_103" data-name="Rectangle 103" width="57.323" height="14.74" transform="translate(0 118.094)" fill="#bc7cbc"/>
        <ellipse id="Ellipse_62" data-name="Ellipse 62" cx="14.331" cy="13.922" rx="14.331" ry="13.922" transform="translate(13.922 69.779)" fill="#bc7cbc"/>
        <rect id="Rectangle_104" data-name="Rectangle 104" width="57.323" height="30.299" rx="15.15" transform="translate(66.331 102.535)" fill="#bc7cbc"/>
        <rect id="Rectangle_105" data-name="Rectangle 105" width="57.323" height="14.74" transform="translate(66.332 118.094)" fill="#bc7cbc"/>
        <circle id="Ellipse_63" data-name="Ellipse 63" cx="13.922" cy="13.922" r="13.922" transform="translate(81.072 69.779)" fill="#bc7cbc"/>
        <g id="Path_43" data-name="Path 43" transform="translate(18.907 7.088)">
          <path id="Path_407" data-name="Path 407" d="M10.632,53.459V45.084H9.35A9.35,9.35,0,0,1,0,35.734V9.35A9.35,9.35,0,0,1,9.35,0H54.635a9.35,9.35,0,0,1,9.35,9.35V35.734a9.35,9.35,0,0,1-9.35,9.35H22.4l-.334.238Z" transform="translate(1.282 1.282)" fill="none"/>
          <path id="Path_408" data-name="Path 408" d="M10.632,2.564a8.068,8.068,0,0,0-8.068,8.068V37.016a8.068,8.068,0,0,0,8.068,8.068H13.2v7.171l10.072-7.171H55.917a8.068,8.068,0,0,0,8.068-8.068V10.632a8.068,8.068,0,0,0-8.068-8.068H10.632m0-2.564H55.917A10.632,10.632,0,0,1,66.55,10.632V37.016A10.632,10.632,0,0,1,55.917,47.648H24.088l-13.456,9.58v-9.58A10.632,10.632,0,0,1,0,37.016V10.632A10.632,10.632,0,0,1,10.632,0Z" transform="translate(0 0)" fill="#bc7cbc"/>
        </g>
        <g id="Path_42" data-name="Path 42" transform="translate(47.654 0)">
          <path id="Path_409" data-name="Path 409" d="M53.353,53.459l-11.43-8.138-.334-.238H9.35A9.35,9.35,0,0,1,0,35.734V9.35A9.35,9.35,0,0,1,9.35,0H54.635a9.35,9.35,0,0,1,9.35,9.35V35.734a9.35,9.35,0,0,1-9.35,9.35H53.353v8.375Z" transform="translate(1.282 1.282)" fill="#212226"/>
          <path id="Path_410" data-name="Path 410" d="M10.632,2.564a8.068,8.068,0,0,0-8.068,8.068V37.016a8.068,8.068,0,0,0,8.068,8.068H43.281l10.072,7.171V45.084h2.564a8.068,8.068,0,0,0,8.068-8.068V10.632a8.068,8.068,0,0,0-8.068-8.068H10.632m0-2.564H55.917A10.632,10.632,0,0,1,66.55,10.632V37.016A10.632,10.632,0,0,1,55.917,47.648v9.58l-13.456-9.58H10.632A10.632,10.632,0,0,1,0,37.016V10.632A10.632,10.632,0,0,1,10.632,0Z" transform="translate(0)" fill="#bc7cbc"/>
        </g>
        <ellipse id="Ellipse_64" data-name="Ellipse 64" cx="4.333" cy="4.476" rx="4.333" ry="4.476" transform="translate(62.303 19.449)" fill="#bc7cbc"/>
        <ellipse id="Ellipse_65" data-name="Ellipse 65" cx="4.333" cy="4.476" rx="4.333" ry="4.476" transform="translate(73.49 19.709)" fill="#bc7cbc"/>
        <circle id="Ellipse_66" data-name="Ellipse 66" cx="4.614" cy="4.614" r="4.614" transform="translate(83.545 19.485)" fill="#bc7cbc"/>
      </g>
    </g>
  </g>
</svg>