<svg xmlns="http://www.w3.org/2000/svg" xmlns:xlink="http://www.w3.org/1999/xlink" width="344.866" height="397.866" viewBox="0 0 344.866 397.866"><defs><clipPath id="clip-path"><rect id="Rectangle_314" width="250.008" height="250.008" data-name="Rectangle 314"/></clipPath></defs><g id="Polygon_14" fill="none" data-name="Polygon 14" opacity=".5"><path stroke="none" d="M297.75,0,397,172,297.75,344H99.25L0,172,99.25,0Z" transform="translate(344.433 0.432) rotate(90)"/><path fill="#fff" stroke="none" d="M 99.82757568359375 1 L 1.154541015625 172 L 99.8275146484375 343 L 297.1724853515625 343 L 395.845458984375 172 L 297.1724853515625 1 L 99.82757568359375 1 M 99.25006103515625 0 L 297.75 0 L 397 172 L 297.75 344 L 99.25 344 L 0 172 L 99.25006103515625 0 Z" transform="translate(344.433 0.432) rotate(90)"/></g><line id="Line_88" x1="172" y2="298" fill="none" stroke="#fff" stroke-width="1" data-name="Line 88" opacity=".5" transform="translate(0.433 0.432)"/><line id="Line_89" x1="172" y1="298" fill="none" stroke="#fff" stroke-width="1" data-name="Line 89" opacity=".5" transform="translate(172.433 0.432)"/><line id="Line_90" x2="344" fill="none" stroke="#fff" stroke-width="1" data-name="Line 90" transform="translate(0.433 298.432)"/><line id="Line_91" x2="172" y1="99" fill="none" stroke="#fff" stroke-width="1" data-name="Line 91" transform="translate(172.433 298.432)"/><line id="Line_92" x2="172" y1="100" fill="none" stroke="#fff" stroke-width="1" data-name="Line 92" transform="translate(0.433 0.432)"/><line id="Line_93" x1="172" y1="100" fill="none" stroke="#fff" stroke-width="1" data-name="Line 93" transform="translate(172.433 0.432)"/><g id="Group_Discussion_Icon" clip-path="url(#clip-path)" data-name="Group Discussion Icon" transform="matrix(0.985, 0.174, -0.174, 0.985, 71.035, 54.121)"><rect id="Rectangle_313" width="250.008" height="250.008" fill="rgba(255,255,255,0)" data-name="Rectangle 313"/><g id="Group_88" data-name="Group 88" transform="matrix(0.985, -0.174, 0.174, 0.985, 52.55, 66.895)"><g id="Group_89" data-name="Group 89" transform="translate(0 0)"><rect id="Rectangle_102" width="57.323" height="30.299" fill="#bc7cbc" data-name="Rectangle 102" rx="15.15" transform="translate(0 102.535)"/><rect id="Rectangle_103" width="57.323" height="14.74" fill="#bc7cbc" data-name="Rectangle 103" transform="translate(0 118.094)"/><ellipse id="Ellipse_62" cx="14.331" cy="13.922" fill="#bc7cbc" data-name="Ellipse 62" rx="14.331" ry="13.922" transform="translate(13.922 69.779)"/><rect id="Rectangle_104" width="57.323" height="30.299" fill="#bc7cbc" data-name="Rectangle 104" rx="15.15" transform="translate(66.331 102.535)"/><rect id="Rectangle_105" width="57.323" height="14.74" fill="#bc7cbc" data-name="Rectangle 105" transform="translate(66.332 118.094)"/><circle id="Ellipse_63" cx="13.922" cy="13.922" r="13.922" fill="#bc7cbc" data-name="Ellipse 63" transform="translate(81.072 69.779)"/><g id="Path_43" data-name="Path 43" transform="translate(18.907 7.088)"><path id="Path_407" fill="none" d="M10.632,53.459V45.084H9.35A9.35,9.35,0,0,1,0,35.734V9.35A9.35,9.35,0,0,1,9.35,0H54.635a9.35,9.35,0,0,1,9.35,9.35V35.734a9.35,9.35,0,0,1-9.35,9.35H22.4l-.334.238Z" data-name="Path 407" transform="translate(1.282 1.282)"/><path id="Path_408" fill="#bc7cbc" d="M10.632,2.564a8.068,8.068,0,0,0-8.068,8.068V37.016a8.068,8.068,0,0,0,8.068,8.068H13.2v7.171l10.072-7.171H55.917a8.068,8.068,0,0,0,8.068-8.068V10.632a8.068,8.068,0,0,0-8.068-8.068H10.632m0-2.564H55.917A10.632,10.632,0,0,1,66.55,10.632V37.016A10.632,10.632,0,0,1,55.917,47.648H24.088l-13.456,9.58v-9.58A10.632,10.632,0,0,1,0,37.016V10.632A10.632,10.632,0,0,1,10.632,0Z" data-name="Path 408" transform="translate(0 0)"/></g><g id="Path_42" data-name="Path 42" transform="translate(47.654 0)"><path id="Path_409" fill="#212226" d="M53.353,53.459l-11.43-8.138-.334-.238H9.35A9.35,9.35,0,0,1,0,35.734V9.35A9.35,9.35,0,0,1,9.35,0H54.635a9.35,9.35,0,0,1,9.35,9.35V35.734a9.35,9.35,0,0,1-9.35,9.35H53.353v8.375Z" data-name="Path 409" transform="translate(1.282 1.282)"/><path id="Path_410" fill="#bc7cbc" d="M10.632,2.564a8.068,8.068,0,0,0-8.068,8.068V37.016a8.068,8.068,0,0,0,8.068,8.068H43.281l10.072,7.171V45.084h2.564a8.068,8.068,0,0,0,8.068-8.068V10.632a8.068,8.068,0,0,0-8.068-8.068H10.632m0-2.564H55.917A10.632,10.632,0,0,1,66.55,10.632V37.016A10.632,10.632,0,0,1,55.917,47.648v9.58l-13.456-9.58H10.632A10.632,10.632,0,0,1,0,37.016V10.632A10.632,10.632,0,0,1,10.632,0Z" data-name="Path 410" transform="translate(0)"/></g><ellipse id="Ellipse_64" cx="4.333" cy="4.476" fill="#bc7cbc" data-name="Ellipse 64" rx="4.333" ry="4.476" transform="translate(62.303 19.449)"/><ellipse id="Ellipse_65" cx="4.333" cy="4.476" fill="#bc7cbc" data-name="Ellipse 65" rx="4.333" ry="4.476" transform="translate(73.49 19.709)"/><circle id="Ellipse_66" cx="4.614" cy="4.614" r="4.614" fill="#bc7cbc" data-name="Ellipse 66" transform="translate(83.545 19.485)"/></g></g></g></svg>