<svg xmlns="http://www.w3.org/2000/svg" xmlns:xlink="http://www.w3.org/1999/xlink" width="390" height="390" viewBox="0 0 390 390"><defs><clipPath id="clip-Hackathon_Icon"><rect width="390" height="390"/></clipPath></defs><g id="Hackathon_Icon" clip-path="url(#clip-Hackathon_Icon)" data-name="Hackathon Icon"><rect width="390" height="390" fill="rgba(255,255,255,0)"/><g id="Icon_awesome-file-code" fill="none" stroke-linejoin="round" data-name="Icon awesome-file-code"><path stroke="none" d="M103.333,66.667a10.029,10.029,0,0,1-10-10V0H10A10,10,0,0,0,0,10V203.333a10,10,0,0,0,10,10l123.188-4.166c5.523,0,26.469-10.593,26.631-29.351L160,66.667Z" transform="translate(100.934 100.505) rotate(-8)"/><path fill="#526dea" stroke="none" d="M 10 -1.52587890625e-05 C 4.477066040039062 -1.52587890625e-05 0 4.477081298828125 0 9.999984741210938 L 0 203.3333435058594 C 0 208.8562469482422 4.477066040039062 213.3333740234375 10 213.3333740234375 L 133.1884765625 209.1677093505859 C 138.7114105224609 209.1677093505859 159.6572113037109 198.5751800537109 159.8193511962891 179.8162689208984 L 160 66.66667175292969 L 103.3333435058594 66.66667175292969 C 97.83334350585938 66.66667175292969 93.33334350585938 62.16667175292969 93.33334350585938 56.66667175292969 L 93.33334350585938 -1.52587890625e-05 L 10 -1.52587890625e-05 M 10 -4.000015258789062 L 93.33334350585938 -4.000015258789062 C 95.54246520996094 -4.000015258789062 97.33334350585938 -2.209136962890625 97.33334350585938 -1.52587890625e-05 L 97.33334350585938 56.66667175292969 C 97.33334350585938 58.25827026367188 97.96049499511719 59.76199340820312 99.09928131103516 60.90074157714844 C 100.2380294799805 62.03952026367188 101.7417449951172 62.66667175292969 103.3333435058594 62.66667175292969 L 160 62.66667175292969 C 161.0619659423828 62.66667175292969 162.0803375244141 63.0889892578125 162.8306884765625 63.84053039550781 C 163.5809936523438 64.59202575683594 164.0016937255859 65.611083984375 164 66.67304992675781 L 163.8193511962891 179.8226470947266 C 163.8193054199219 179.8320617675781 163.8192749023438 179.8414611816406 163.8191833496094 179.850830078125 C 163.7756500244141 184.8895263671875 162.4369659423828 189.7507171630859 159.8403778076172 194.2993927001953 C 157.7010955810547 198.0469055175781 154.7557830810547 201.5091857910156 151.0862121582031 204.5900573730469 C 147.3222503662109 207.7501525878906 143.7167816162109 209.733642578125 141.3549346923828 210.8411407470703 C 139.5194396972656 211.7017974853516 136.0433807373047 213.1401824951172 133.2677307128906 213.1673278808594 L 10.13519287109375 217.3310852050781 C 10.09011840820312 217.3326110839844 10.04505920410156 217.3333740234375 10 217.3333740234375 C 8.11175537109375 217.3333740234375 6.277877807617188 216.962646484375 4.54931640625 216.2315521240234 C 2.8817138671875 215.5262145996094 1.384902954101562 214.5173034667969 0.1004638671875 213.2328643798828 C -1.183975219726562 211.9483947753906 -2.19287109375 210.4515838623047 -2.898193359375 208.7839965820312 C -3.629318237304688 207.0554351806641 -4 205.2215576171875 -4 203.3333435058594 L -4 9.999984741210938 C -4 8.111740112304688 -3.629318237304688 6.27789306640625 -2.898193359375 4.549331665039062 C -2.19287109375 2.881744384765625 -1.183975219726562 1.384933471679688 0.1004638671875 0.100494384765625 C 1.384902954101562 -1.183975219726562 2.8817138671875 -2.192855834960938 4.54931640625 -2.898193359375 C 6.277877807617188 -3.629287719726562 8.11175537109375 -4.000015258789062 10 -4.000015258789062 Z" transform="translate(100.934 100.505) rotate(-8)"/></g><line id="Line_60" x2="75" y2="57" fill="none" stroke="#526dea" stroke-linecap="round" stroke-width="4" data-name="Line 60" transform="translate(195 86.333)"/><g id="Group_92" data-name="Group 92" transform="translate(-171.134 -113.303) rotate(-8)"><g id="Icon_feather-code" data-name="Icon feather-code" transform="translate(270.581 358.056)"><path id="Path_10" fill="none" stroke="#5d7aff" stroke-linecap="round" stroke-linejoin="round" stroke-width="4" d="M24,51.979,49.942,30.489,24,9" data-name="Path 10" transform="translate(52.779 -9)"/><path id="Path_11" fill="none" stroke="#5d7aff" stroke-linecap="round" stroke-linejoin="round" stroke-width="4" d="M28.942,9,3,30.489,28.942,51.979" data-name="Path 11" transform="translate(-3 -9)"/></g><line id="Line_17" x1="26.711" y2="63.439" fill="none" stroke="#5d7aff" stroke-linecap="round" stroke-width="4" data-name="Line 17" transform="translate(306.914 347.826)"/></g></g></svg>