<svg xmlns="http://www.w3.org/2000/svg" xmlns:xlink="http://www.w3.org/1999/xlink" width="390" height="390" viewBox="0 0 390 390">
  <defs>
    <clipPath id="clip-Hardware_Icon">
      <rect width="390" height="390"/>
    </clipPath>
  </defs>
  <g id="Hardware_Icon" data-name="Hardware Icon" clip-path="url(#clip-Hardware_Icon)">
    <rect width="390" height="390" fill="rgba(255,255,255,0)"/>
    <g id="Group_163" data-name="Group 163" transform="translate(7.067 -0.985)">
      <g id="Group_82" data-name="Group 82" transform="translate(273.123 344.372) rotate(-160)">
        <g id="Path_396" data-name="Path 396" transform="matrix(-0.985, 0.174, -0.174, -0.985, 144.494, 95.428)" fill="none">
          <path d="M45,37.588a25,25,0,0,1,43.322,0l12.025,17.166c15.917,27.62-78.464,52.553-81.315,42.128a24.48,24.48,0,0,1,2.572-18.7Z" stroke="none"/>
          <path d="M 66.65711975097656 40.07022857666016 C 64.91956329345703 40.07022857666016 60.59706115722656 40.55811309814453 57.99281311035156 45.07725524902344 L 35.92018890380859 83.37974548339844 C 54.89892578125 80.11119842529297 81.64456176757812 68.89805603027344 86.67881774902344 61.39228057861328 L 75.65219879150391 45.65125274658203 L 75.32142639160156 45.07725524902344 C 72.71717071533203 40.55811309814453 68.39466857910156 40.07022857666016 66.65711975097656 40.07022857666016 M 66.65712738037109 25.07024383544922 C 75.0830078125 25.07024383544922 83.50888061523438 29.24275207519531 88.31787109375 37.58778381347656 L 100.3429489135742 54.75414276123047 C 116.2594757080078 82.37403106689453 21.87857055664062 107.307502746582 19.02825927734375 96.88236999511719 C 17.45120239257812 91.125 18.03678131103516 84.37059020996094 21.60005950927734 78.187255859375 L 44.99636840820312 37.58778381347656 C 49.80536651611328 29.24275207519531 58.23124694824219 25.07024383544922 66.65712738037109 25.07024383544922 Z" stroke="none" fill="#b06bff"/>
        </g>
        <path id="Polygon_12" data-name="Polygon 12" d="M10.1,61.5c2.861-13.82,22.6-13.82,25.46,0l6.866,33.17A13,13,0,0,1,29.7,110.3H15.967A13,13,0,0,1,3.237,94.666Z" transform="translate(187.741 159.365) rotate(130)" fill="#b06bff"/>
        <g id="Ellipse_51" data-name="Ellipse 51" transform="translate(49.625 66.674)" fill="#b06bff" stroke="#7542b1" stroke-width="8">
          <ellipse cx="30.061" cy="30.061" rx="30.061" ry="30.061" stroke="none"/>
          <ellipse cx="30.061" cy="30.061" rx="26.061" ry="26.061" fill="none"/>
        </g>
        <g id="Ellipse_52" data-name="Ellipse 52" transform="translate(67.923 84.318)" fill="#b06bff" stroke="#7542b1" stroke-width="7">
          <ellipse cx="12.09" cy="12.09" rx="12.09" ry="12.09" stroke="none"/>
          <ellipse cx="12.09" cy="12.09" rx="8.59" ry="8.59" fill="none"/>
        </g>
        <path id="Icon_awesome-wrench" data-name="Icon awesome-wrench" d="M44.564,35.363a1.052,1.052,0,0,1-1.766.484L36.271,29.32l-5.958.993-.993,5.958L35.848,42.8a1.055,1.055,0,0,1-.5,1.769A12.578,12.578,0,0,1,20.374,28.318L1.645,9.588A5.617,5.617,0,1,1,9.588,1.645L28.3,20.359a12.6,12.6,0,0,1,16.262,15ZM5.618,3.511A2.107,2.107,0,1,0,7.724,5.618,2.107,2.107,0,0,0,5.618,3.511Z" transform="translate(135.222 153.512) rotate(-65)" fill="#b06bff"/>
        <g id="Ellipse_53" data-name="Ellipse 53" transform="translate(119.397 130.303)" fill="#b06bff" stroke="#7542b1" stroke-width="7">
          <ellipse cx="21.239" cy="21.239" rx="21.239" ry="21.239" stroke="none"/>
          <ellipse cx="21.239" cy="21.239" rx="17.739" ry="17.739" fill="none"/>
        </g>
        <g id="Ellipse_54" data-name="Ellipse 54" transform="translate(132.141 143.046)" fill="#b06bff" stroke="#7542b1" stroke-width="7">
          <ellipse cx="8.496" cy="8.496" rx="8.496" ry="8.496" stroke="none"/>
          <ellipse cx="8.496" cy="8.496" rx="4.996" ry="4.996" fill="none"/>
        </g>
      </g>
      <g id="Ellipse_56" data-name="Ellipse 56" transform="matrix(0.956, -0.292, 0.292, 0.956, 53.518, 118.902)" fill="none" stroke="#b06bff" stroke-width="4">
        <ellipse cx="113.272" cy="115.236" rx="113.272" ry="115.236" stroke="none"/>
        <ellipse cx="113.272" cy="115.236" rx="111.272" ry="113.236" fill="none"/>
      </g>
      <circle id="Ellipse_57" data-name="Ellipse 57" cx="16" cy="16" r="16" transform="translate(227.32 76.5)" fill="#b06bff"/>
      <circle id="Ellipse_58" data-name="Ellipse 58" cx="12.5" cy="12.5" r="12.5" transform="translate(49.32 172.5)" fill="#b06bff"/>
      <circle id="Ellipse_59" data-name="Ellipse 59" cx="5" cy="5" r="5" transform="translate(38.32 166.5)" fill="#b06bff"/>
      <circle id="Ellipse_60" data-name="Ellipse 60" cx="8" cy="8" r="8" transform="translate(52.32 151.5)" fill="#b06bff"/>
      <g id="Ellipse_110" data-name="Ellipse 110" transform="matrix(0.956, -0.292, 0.292, 0.956, 53.518, 118.902)" fill="none" stroke="#b06bff" stroke-width="4">
        <ellipse cx="113.272" cy="115.236" rx="113.272" ry="115.236" stroke="none"/>
        <ellipse cx="113.272" cy="115.236" rx="111.272" ry="113.236" fill="none"/>
      </g>
    </g>
  </g>
</svg>
