<svg xmlns="http://www.w3.org/2000/svg" xmlns:xlink="http://www.w3.org/1999/xlink" width="390" height="390" viewBox="0 0 390 390">
  <defs>
    <clipPath id="clip-Jr_Robotics">
      <rect width="390" height="390"/>
    </clipPath>
  </defs>
  <g id="Jr_Robotics" data-name="Jr Robotics" clip-path="url(#clip-Jr_Robotics)">
    <rect width="390" height="390" fill="rgba(255,255,255,0)"/>
    <g id="Group_177" data-name="Group 177" transform="translate(-897.696 -1895.613)">
      <ellipse id="Ellipse_68" data-name="Ellipse 68" cx="14.12" cy="14.127" rx="14.12" ry="14.127" transform="translate(1024.641 2168.278) rotate(163)" fill="#00e850"/>
      <ellipse id="Ellipse_69" data-name="Ellipse 69" cx="3.388" cy="3.956" rx="3.388" ry="3.956" transform="translate(1031.635 2160.227) rotate(163)" fill="#00e850"/>
      <ellipse id="Ellipse_70" data-name="Ellipse 70" cx="6.213" cy="5.651" rx="6.213" ry="5.651" transform="translate(999.27 2139.384) rotate(163)" fill="#00e850"/>
      <ellipse id="Ellipse_71" data-name="Ellipse 71" cx="12.425" cy="12.432" rx="12.425" ry="12.432" transform="translate(1164.294 1987.206) rotate(163)" fill="#00e850"/>
      <g id="Group_167" data-name="Group 167" transform="translate(1019.888 2036.514) rotate(-20)">
        <g id="Icon_awesome-robot" data-name="Icon awesome-robot" transform="translate(0 0)" fill="none">
          <path d="M0,49.139V73.708a6.136,6.136,0,0,0,6.142,6.142h6.142V43H6.142A6.136,6.136,0,0,0,0,49.139ZM89.064,18.427h-21.5V6.142a6.142,6.142,0,1,0-12.285,0V18.427h-21.5A15.352,15.352,0,0,0,18.427,33.783v52.21A12.3,12.3,0,0,0,30.712,98.278H92.136A12.3,12.3,0,0,0,104.42,85.993V33.783A15.352,15.352,0,0,0,89.064,18.427ZM43,56.817a7.678,7.678,0,1,1,7.678-7.678A7.676,7.676,0,0,1,43,56.817ZM84.732,79.851H37.142V73.708h47.59ZM79.851,56.817a7.678,7.678,0,1,1,7.678-7.678A7.676,7.676,0,0,1,79.851,56.817ZM116.705,43h-6.142V79.851h6.142a6.136,6.136,0,0,0,6.142-6.142V49.139A6.136,6.136,0,0,0,116.705,43Z" stroke="none"/>
          <path d="M 61.42370986938477 4.000007629394531 C 60.24238967895508 4.000007629394531 59.28133010864258 4.961067199707031 59.28133010864258 6.142364501953125 L 59.28133010864258 22.42710876464844 L 33.78305053710938 22.42710876464844 C 30.7481689453125 22.42710876464844 27.89601135253906 23.60788726806641 25.751953125 25.75194549560547 C 23.60788726806641 27.89600372314453 22.42710876464844 30.7481689453125 22.42710876464844 33.78304290771484 L 22.42710876464844 85.99318695068359 C 22.42710876464844 90.56140899658203 26.14363098144531 94.27792358398438 30.71185302734375 94.27792358398438 L 92.13557434082031 94.27792358398438 C 96.70378875732422 94.27792358398438 100.4203109741211 90.56140899658203 100.4203109741211 85.99318695068359 L 100.4203109741211 33.78304290771484 C 100.4203109741211 30.7481689453125 99.23953247070312 27.89600372314453 97.09547424316406 25.75194549560547 C 94.95140838623047 23.60788726806641 92.09925079345703 22.42710876464844 89.06436920166016 22.42710876464844 L 63.56607055664062 22.42710876464844 L 63.56607055664062 6.142364501953125 C 63.56607055664062 4.961067199707031 62.60501098632812 4.000007629394531 61.42370986938477 4.000007629394531 M 42.99658966064453 60.81692504882812 C 39.87648773193359 60.81692504882812 36.94368743896484 59.60242462158203 34.73841094970703 57.39714431762695 C 32.53312683105469 55.19188690185547 31.31862640380859 52.25906372070312 31.31862640380859 49.13896560668945 C 31.31862640380859 46.01888656616211 32.53312683105469 43.08606719970703 34.73841094970703 40.88078689575195 C 36.94368743896484 38.67550659179688 39.87651062011719 37.46100616455078 42.99658966064453 37.46100616455078 C 46.11669158935547 37.46100616455078 49.04950714111328 38.67550659179688 51.25479125976562 40.88078689575195 C 53.46006774902344 43.08606719970703 54.67456817626953 46.01886749267578 54.67456817626953 49.13896560668945 C 54.67456817626953 52.25906372070312 53.46006774902344 55.19188690185547 51.25479125976562 57.39716720581055 C 49.04950714111328 59.60242462158203 46.11669158935547 60.81692504882812 42.99658966064453 60.81692504882812 M 79.850830078125 60.81692504882812 C 76.73072814941406 60.81692504882812 73.79791259765625 59.60242462158203 71.59262847900391 57.39716720581055 C 69.38734436035156 55.19188690185547 68.1728515625 52.25906372070312 68.1728515625 49.13896560668945 C 68.1728515625 46.01886749267578 69.38734436035156 43.08606719970703 71.59262847900391 40.88078689575195 C 73.79791259765625 38.67550659179688 76.73072814941406 37.46100616455078 79.850830078125 37.46100616455078 C 82.97090911865234 37.46100616455078 85.90373229980469 38.67550659179688 88.1090087890625 40.88078689575195 C 90.31428527832031 43.08606719970703 91.52879333496094 46.01888656616211 91.52879333496094 49.13896560668945 C 91.52879333496094 52.25906372070312 90.31428527832031 55.19188690185547 88.1090087890625 57.39714431762695 C 85.90373229980469 59.60242462158203 82.97093200683594 60.81692504882812 79.850830078125 60.81692504882812 M 88.73228454589844 83.85082244873047 L 33.14228820800781 83.85082244873047 L 33.14228820800781 69.70845031738281 L 88.73228454589844 69.70845031738281 L 88.73228454589844 83.85082244873047 M 6.142372131347656 46.99658584594727 C 4.961051940917969 46.99658584594727 3.999992370605469 47.95764541625977 3.999992370605469 49.13896560668945 L 3.999992370605469 73.70845031738281 C 3.999992370605469 74.88976287841797 4.961051940917969 75.850830078125 6.142372131347656 75.850830078125 L 8.284751892089844 75.850830078125 L 8.284751892089844 46.99658584594727 L 6.142372131347656 46.99658584594727 M 114.5626678466797 46.99658584594727 L 114.5626678466797 75.850830078125 L 116.7050476074219 75.850830078125 C 117.8863525390625 75.850830078125 118.847412109375 74.88976287841797 118.847412109375 73.70845031738281 L 118.847412109375 49.13896560668945 C 118.847412109375 47.95764541625977 117.8863525390625 46.99658584594727 116.7050476074219 46.99658584594727 L 114.5626678466797 46.99658584594727 M 61.42370986938477 7.62939453125e-06 C 64.82122802734375 7.62939453125e-06 67.56607055664062 2.744865417480469 67.56607055664062 6.142364501953125 L 67.56607055664062 18.42710876464844 L 89.06436920166016 18.42710876464844 C 97.54853057861328 18.42710876464844 104.4203109741211 25.29888916015625 104.4203109741211 33.78304290771484 L 104.4203109741211 85.99318695068359 C 104.4203109741211 92.76898193359375 98.91136932373047 98.27792358398438 92.13557434082031 98.27792358398438 L 30.71185302734375 98.27792358398438 C 23.93605041503906 98.27792358398438 18.42710876464844 92.76898193359375 18.42710876464844 85.99318695068359 L 18.42710876464844 33.78304290771484 C 18.42710876464844 25.29888916015625 25.29888916015625 18.42710876464844 33.78305053710938 18.42710876464844 L 55.28132629394531 18.42710876464844 L 55.28132629394531 6.142364501953125 C 55.28132629394531 2.744865417480469 58.02620697021484 7.62939453125e-06 61.42370986938477 7.62939453125e-06 Z M 42.99658966064453 56.81692504882812 C 47.23867034912109 56.81692504882812 50.67456817626953 53.38104629516602 50.67456817626953 49.13896560668945 C 50.67456817626953 44.89690399169922 47.23867034912109 41.46100616455078 42.99658966064453 41.46100616455078 C 38.75453186035156 41.46100616455078 35.31862640380859 44.89690399169922 35.31862640380859 49.13896560668945 C 35.31862640380859 53.38104629516602 38.75453186035156 56.81692504882812 42.99658966064453 56.81692504882812 Z M 79.850830078125 56.81692504882812 C 84.0928955078125 56.81692504882812 87.52879333496094 53.38104629516602 87.52879333496094 49.13896560668945 C 87.52879333496094 44.89690399169922 84.0928955078125 41.46100616455078 79.850830078125 41.46100616455078 C 75.60874938964844 41.46100616455078 72.1728515625 44.89690399169922 72.1728515625 49.13896560668945 C 72.1728515625 53.38104629516602 75.60874938964844 56.81692504882812 79.850830078125 56.81692504882812 Z M 84.73228454589844 79.850830078125 L 84.73228454589844 73.70845031738281 L 37.14228820800781 73.70845031738281 L 37.14228820800781 79.850830078125 L 84.73228454589844 79.850830078125 Z M 6.142372131347656 42.99658584594727 L 12.28475189208984 42.99658584594727 L 12.28475189208984 79.850830078125 L 6.142372131347656 79.850830078125 C 2.744873046875 79.850830078125 -7.62939453125e-06 77.10596466064453 -7.62939453125e-06 73.70845031738281 L -7.62939453125e-06 49.13896560668945 C -7.62939453125e-06 45.7414665222168 2.744873046875 42.99658584594727 6.142372131347656 42.99658584594727 Z M 110.5626678466797 42.99658584594727 L 116.7050476074219 42.99658584594727 C 120.1025314331055 42.99658584594727 122.847412109375 45.7414665222168 122.847412109375 49.13896560668945 L 122.847412109375 73.70845031738281 C 122.847412109375 77.10596466064453 120.1025314331055 79.850830078125 116.7050476074219 79.850830078125 L 110.5626678466797 79.850830078125 L 110.5626678466797 42.99658584594727 Z" stroke="none" fill="#00e850"/>
        </g>
        <g id="Rectangle_295" data-name="Rectangle 295" transform="translate(0 107.177)" fill="none" stroke="#00e850" stroke-linecap="round" stroke-linejoin="round" stroke-width="4">
          <rect width="122.307" height="85.741" rx="6" stroke="none"/>
          <rect x="2" y="2" width="118.307" height="81.741" rx="4" fill="none"/>
        </g>
        <g id="Rectangle_296" data-name="Rectangle 296" transform="translate(36.566 126.09)" fill="none" stroke="#00e850" stroke-linejoin="round" stroke-width="4">
          <rect width="49.175" height="49.175" rx="5" stroke="none"/>
          <rect x="2" y="2" width="45.175" height="45.175" rx="3" fill="none"/>
        </g>
        <line id="Line_84" data-name="Line 84" y2="44.132" transform="translate(61.154 128.612)" fill="none" stroke="#00e850" stroke-width="4"/>
        <line id="Line_86" data-name="Line 86" y2="44.132" transform="translate(49.806 127.982)" fill="none" stroke="#00e850" stroke-width="4"/>
        <line id="Line_85" data-name="Line 85" y2="44.132" transform="translate(72.502 131.134)" fill="none" stroke="#00e850" stroke-width="4"/>
      </g>
    </g>
  </g>
</svg>