<svg xmlns="http://www.w3.org/2000/svg" xmlns:xlink="http://www.w3.org/1999/xlink" width="390" height="390" viewBox="0 0 390 390">
  <defs>
    <clipPath id="clip-Paint_3D">
      <rect width="390" height="390"/>
    </clipPath>
  </defs>
  <g id="Paint_3D" data-name="Paint 3D" clip-path="url(#clip-Paint_3D)">
    <rect width="390" height="390" fill="rgba(255,255,255,0)"/>
    <path id="Icon_metro-paint" data-name="Icon metro-paint" d="M178.927,92.034V25.9H145.86V14.878A11.055,11.055,0,0,0,134.838,3.856H13.593A11.055,11.055,0,0,0,2.571,14.878V47.945A11.055,11.055,0,0,0,13.593,58.967H134.838A11.055,11.055,0,0,0,145.86,47.945V36.923H167.9V81.012H68.7v22.044H63.193a5.511,5.511,0,0,0-5.511,5.511v55.111a5.511,5.511,0,0,0,5.511,5.511H85.237a5.511,5.511,0,0,0,5.511-5.511V108.567a5.511,5.511,0,0,0-5.511-5.511H79.726V92.034ZM134.838,25.9H13.593V14.878H134.838Z" transform="matrix(0.891, -0.454, 0.454, 0.891, 88.453, 159.246)" fill="none" stroke="#e8003f" stroke-width="4"/>
    <g id="Group_169" data-name="Group 169" transform="translate(-875.275 -2428.091)">
      <g id="Icon_awesome-cube" data-name="Icon awesome-cube" transform="translate(940 2650.772)" fill="none" stroke-linejoin="bevel">
        <path d="M1.178,16.735,1,61.1l38.663,21.05L79,61.444l.049-44.636S41.38.314,40.411.236Z" stroke="none"/>
        <path d="M 40.51763916015625 6.700241088867188 L 7.161972045898438 20.72759628295898 L 7.015457153320312 57.53945922851562 L 39.71189117431641 75.34147644042969 L 73.00030517578125 57.82009124755859 L 73.0406494140625 20.73041152954102 C 61.45669555664062 15.66832733154297 45.98093032836914 8.953254699707031 40.51763916015625 6.700241088867188 M 40.41143798828125 0.2359237670898438 C 41.38025283813477 0.3138198852539062 79.044921875 16.80797576904297 79.044921875 16.80797576904297 L 78.99636840820312 61.44443893432617 L 39.66398620605469 82.14707183837891 L 1.001251220703125 61.09662246704102 L 1.177818298339844 16.73519134521484 L 40.41143798828125 0.2359237670898438 Z" stroke="none" fill="#e8003f"/>
      </g>
      <path id="Path_48" data-name="Path 48" d="M3469.023,2729.62l-33.123-19.036v-37.479l33.123,14.771Z" transform="translate(-2489 -1.682)" fill="#e8003f"/>
      <line id="Line_87" data-name="Line 87" y1="17" x2="39" transform="translate(978.775 2671.591)" fill="none" stroke="#e8003f" stroke-width="5"/>
    </g>
  </g>
</svg>