<svg xmlns="http://www.w3.org/2000/svg" id="quiz" width="235" height="196" viewBox="0 0 235 196"><g id="Polygon_4" fill="none" data-name="Polygon 4"><path stroke="none" d="M109,0,218,189H0Z" transform="translate(17 7)"/><path fill="#707070" stroke="none" d="M 109 2.001617431640625 L 1.731094360351562 188 L 216.2689056396484 188 L 109 2.001617431640625 M 109 0 L 218 189 L 0 189 L 109 0 Z" transform="translate(17 7)"/></g><g id="Polygon_7" fill="none" data-name="Polygon 7"><path stroke="none" d="M101.5,0,203,176H0Z"/><path fill="#707070" stroke="none" d="M 101.5 2.001663208007812 L 1.7310791015625 175 L 201.2689208984375 175 L 101.5 2.001663208007812 M 101.5 0 L 203 176 L 0 176 L 101.5 0 Z"/></g><line id="Line_13" x1="87.659" y2="151.071" fill="none" stroke="#fff" stroke-width="1" data-name="Line 13" transform="translate(28.442 24.879)"/><line id="Line_12" x1="87.659" y1="151.071" fill="none" stroke="#fff" stroke-width="1" data-name="Line 12" transform="translate(115.168 24.879)"/><line id="Line_15" x2="174.385" fill="none" stroke="#fff" stroke-width="1" data-name="Line 15" transform="translate(28.442 175.95)"/><g id="Icon_ionic-ios-bulb" data-name="Icon ionic-ios-bulb" transform="translate(91.019 88)"><g id="Path_15" fill="none" data-name="Path 15"><path stroke="none" d="M56.825,26.81c0-12.956-11.659-23.435-24.616-23.435S7.594,13.87,7.594,26.81c0,5.156,2.2,9.331,5.023,13.322h-.05c1.813,2.495,3.559,2.944,5.239,5.821,2.445,4.191,3.01,6.769,3.11,9.264a2.668,2.668,0,0,0,2.661,2.545H40.858a2.661,2.661,0,0,0,2.661-2.495,19.982,19.982,0,0,1,3.06-9.314c1.68-2.877,3.426-3.326,5.239-5.821H51.8C54.63,36.14,56.825,31.966,56.825,26.81Z" transform="translate(-7.594 -3.375)"/><path fill="#ffdc00" stroke="none" d="M 32.20940399169922 5.875 C 29.35883331298828 5.875 26.54275512695312 6.432720184326172 23.83938217163086 7.532672882080078 C 21.20588302612305 8.604202270507812 18.82089233398438 10.12934112548828 16.75065231323242 12.06574249267578 C 14.6701545715332 14.01174163818359 13.03390502929688 16.25653076171875 11.88735580444336 18.73776245117188 C 10.69720458984375 21.31336212158203 10.09374237060547 24.02918243408203 10.09374237060547 26.80976104736328 C 10.09374237060547 28.88552093505859 10.50661468505859 30.89536094665527 11.35596466064453 32.95413208007812 C 12.0792350769043 34.70732116699219 13.12808227539062 36.52901077270508 14.65673446655273 38.68710327148438 L 15.0721549987793 39.27357482910156 C 15.55791854858398 39.83865737915039 16.05273056030273 40.27883529663086 16.6039924621582 40.76923370361328 C 17.64765548706055 41.69766235351562 18.83056259155273 42.74996948242188 19.96537399291992 44.69374084472656 C 22.82099151611328 49.58909225463867 23.3117790222168 52.59140014648438 23.41360473632812 55.10447692871094 C 23.41979598999023 55.20204544067383 23.50286483764648 55.26228332519531 23.57729339599609 55.26228332519531 L 40.85814666748047 55.26228332519531 C 40.95514678955078 55.26228332519531 41.01960372924805 55.18786239624023 41.02355194091797 55.12158966064453 C 41.22822570800781 51.61943054199219 42.27425384521484 48.40599060058594 44.41522216796875 44.7022705078125 L 44.42062377929688 44.69297027587891 C 45.55498504638672 42.74996185302734 46.73789215087891 41.69765090942383 47.78156280517578 40.76922225952148 C 48.42112350463867 40.20027160644531 48.98470687866211 39.69892120361328 49.54633331298828 38.9916877746582 L 49.7620735168457 38.68711090087891 C 51.29072570800781 36.52901077270508 52.33956527709961 34.70732116699219 53.06283569335938 32.95413208007812 C 53.91218566894531 30.89536094665527 54.32505416870117 28.88551330566406 54.32505416870117 26.80976104736328 C 54.32505416870117 24.02523040771484 53.72155380249023 21.30698013305664 52.53132629394531 18.73050308227539 C 51.38506317138672 16.24917984008789 49.74900436401367 14.0048828125 47.66859436035156 12.05992126464844 C 45.59893417358398 10.1250114440918 43.21409606933594 8.601161956787109 40.58030319213867 7.530693054199219 C 37.87720489501953 6.432060241699219 35.06082153320312 5.875 32.20940399169922 5.875 M 32.20940399169922 3.375 C 45.16588592529297 3.375 56.82505416870117 13.8532829284668 56.82505416870117 26.80976104736328 C 56.82505416870117 31.96574211120605 54.62960433959961 36.14043426513672 51.80213165283203 40.13215255737305 L 51.81876373291016 40.13215255737305 C 50.00585174560547 42.62698364257812 48.25947570800781 43.0760498046875 46.57962417602539 45.95342254638672 C 44.3010139465332 49.8952522277832 43.66898345947266 52.70609283447266 43.51929473876953 55.26745223999023 C 43.43613433837891 56.6645622253418 42.27188491821289 57.76228332519531 40.85814666748047 57.76228332519531 C 38.82901382446289 57.76228332519531 25.4234733581543 57.76228332519531 25.05755233764648 57.76228332519531 L 23.57729339599609 57.76228332519531 C 22.16355514526367 57.76228332519531 20.98266220092773 56.64792251586914 20.91613388061523 55.21755218505859 C 20.81634521484375 52.72273254394531 20.2508544921875 50.14472961425781 17.80592346191406 45.95342254638672 C 16.12606430053711 43.0760498046875 14.37968444824219 42.62698364257812 12.5667839050293 40.13215255737305 L 12.61667251586914 40.13215255737305 C 9.789192199707031 36.14043426513672 7.593742370605469 31.96574211120605 7.593742370605469 26.80976104736328 C 7.593742370605469 13.86992263793945 19.25291442871094 3.375 32.20940399169922 3.375 Z" transform="translate(-7.594 -3.375)"/></g><path id="Path_16" fill="#ffdc00" d="M18.079,35.313h5.988a2.335,2.335,0,0,0,2.329-2.329h0a2.335,2.335,0,0,0-2.329-2.329H18.079a2.335,2.335,0,0,0-2.329,2.329h0A2.335,2.335,0,0,0,18.079,35.313Z" data-name="Path 16" transform="translate(3.543 33.877)"/><path id="Path_17" fill="#ffdc00" d="M16.672,32.22h12.64a2.335,2.335,0,0,0,2.329-2.329h0a2.335,2.335,0,0,0-2.329-2.329H16.672a2.335,2.335,0,0,0-2.329,2.329h0A2.335,2.335,0,0,0,16.672,32.22Z" data-name="Path 17" transform="translate(1.623 29.652)"/></g><path id="Path_18" fill="none" stroke="#ffdc00" stroke-linecap="round" stroke-width="2" d="M0,0S3.435,1.969,5.685,7.969,9,24,9,24" data-name="Path 18" transform="translate(104.101 116.5)"/><path id="Path_19" fill="none" stroke="#ffdc00" stroke-linecap="round" stroke-width="2" d="M9,0S5.565,1.969,3.315,7.969,0,24,0,24" data-name="Path 19" transform="translate(119.101 116.5)"/></svg>