<svg xmlns="http://www.w3.org/2000/svg" xmlns:xlink="http://www.w3.org/1999/xlink" width="390" height="390" viewBox="0 0 390 390">
  <defs>
    <clipPath id="clip-Surprise_Icon">
      <rect width="390" height="390"/>
    </clipPath>
  </defs>
  <g id="Surprise_Icon" data-name="Surprise Icon" clip-path="url(#clip-Surprise_Icon)">
    <rect width="390" height="390" fill="rgba(255,255,255,0)"/>
    <g id="Group_162" data-name="Group 162" transform="translate(-151 -159)">
      <g id="Icon_ionic-ios-bulb" data-name="Icon ionic-ios-bulb" transform="translate(247.443 250.648) rotate(-8)">
        <g id="Path_15" data-name="Path 15" transform="translate(0 0)" fill="none">
          <path d="M166.593,79.3C166.593,35.457,127.14,0,83.3,0S0,35.514,0,79.3c0,17.447,7.429,31.574,17,45.081h-.169c6.135,8.442,12.044,9.962,17.729,19.7,8.273,14.183,10.187,22.907,10.525,31.349a9.029,9.029,0,0,0,9.005,8.611h58.476a9,9,0,0,0,9.005-8.442c.507-8.667,2.645-18.179,10.356-31.518,5.684-9.737,11.594-11.256,17.729-19.7H149.6C159.164,110.874,166.593,96.748,166.593,79.3Z" stroke="none"/>
          <path d="M 83.29660797119141 5 C 78.23622131347656 5 73.12730407714844 5.509414672851562 68.1116943359375 6.514114379882812 C 63.21019744873047 7.495941162109375 58.35113525390625 8.959609985351562 53.66952514648438 10.86447143554688 C 49.05583190917969 12.74169921875 44.58116912841797 15.06059265136719 40.36988830566406 17.75672912597656 C 36.18171691894531 20.43806457519531 32.22935485839844 23.50816345214844 28.62260437011719 26.88175964355469 C 25.00177001953125 30.26847839355469 21.70791625976562 33.98117065429688 18.83258056640625 37.91667175292969 C 15.91947937011719 41.90386962890625 13.4149169921875 46.14910888671875 11.38847351074219 50.53450012207031 C 7.149383544921875 59.708251953125 5 69.38650512695312 5 79.30042266845703 C 5 86.78586578369141 6.482635498046875 94.01853179931641 9.532669067382812 101.4116439819336 C 12.08186340332031 107.5907516479492 15.75019836425781 113.9713363647461 21.07711791992188 121.49169921875 L 22.57005310058594 123.599365234375 C 24.409423828125 125.7591934204102 26.25881958007812 127.4044189453125 28.19004821777344 129.1224212646484 C 31.69221496582031 132.2379150390625 35.31361389160156 135.45947265625 38.87572479248047 141.5608978271484 C 42.95888519287109 148.5605926513672 45.80291748046875 154.7311401367188 47.57030487060547 160.4251708984375 C 49.08860015869141 165.3167114257812 49.86180114746094 169.8765563964844 50.07659912109375 175.2074890136719 C 50.18212127685547 177.3575286865234 51.94142913818359 179.0399780273438 54.08650207519531 179.0399780273438 L 112.5630035400391 179.0400085449219 C 114.6889724731445 179.0400085449219 116.4520874023438 177.3975067138672 116.5768890380859 175.3006744384766 L 116.576904296875 175.3006744384766 C 116.8907623291016 169.9370422363281 117.7438049316406 165.1172637939453 119.2613067626953 160.1342010498047 C 121.0539169311523 154.2476501464844 123.779914855957 148.1778564453125 127.5950317382812 141.5779724121094 L 127.6058654785156 141.5593566894531 C 131.1670532226562 135.4595031738281 134.7884521484375 132.2379455566406 138.2905883789062 129.1224670410156 C 140.5105438232422 127.1476135253906 142.6224975585938 125.2687683105469 144.7352447509766 122.5940856933594 L 145.51611328125 121.49169921875 C 150.8430480957031 113.9713363647461 154.5113830566406 107.5907516479492 157.0605773925781 101.4116439819336 C 160.1106109619141 94.01853179931641 161.5932464599609 86.78586578369141 161.5932464599609 79.30042266845703 C 161.5932464599609 69.37328338623047 159.4437713623047 59.6868896484375 155.2045593261719 50.51025390625 C 153.1782989501953 46.12408447265625 150.6738891601562 41.87875366210938 147.7608642578125 37.89219665527344 C 144.8859100341797 33.95777893066406 141.5923309326172 30.24650573730469 137.9715576171875 26.86148071289062 C 134.3653106689453 23.49003601074219 130.4131622314453 20.42208862304688 126.2248840332031 17.74285888671875 C 122.0141143798828 15.04925537109375 117.5395278930664 12.73258972167969 112.9254760742188 10.85728454589844 C 108.2441711425781 8.954620361328125 103.3849487304688 7.49267578125 98.48280334472656 6.512054443359375 C 93.46722412109375 5.50872802734375 88.35786437988281 5 83.29660797119141 5 M 83.29660797119141 0 C 127.139892578125 0 166.5932769775391 35.45726013183594 166.5932464599609 79.30042266845703 C 166.5932464599609 96.74764251708984 159.1640777587891 110.8742828369141 149.5962219238281 124.3817825317383 L 149.6524963378906 124.3817825317383 C 143.5178527832031 132.823974609375 137.6082763671875 134.3435821533203 131.923828125 144.0802764892578 C 124.2132720947266 157.4189453125 122.0745849609375 166.9304504394531 121.5680541992188 175.5977783203125 C 121.2866363525391 180.3254547119141 117.3469161987305 184.0400085449219 112.5630035400391 184.0400085449219 C 105.6966400146484 184.0400085449219 60.33377838134766 184.0399780273438 59.09555816650391 184.0399780273438 L 54.08650207519531 184.0399780273438 C 49.30258178710938 184.0399780273438 45.30657958984375 180.2691650390625 45.08147430419922 175.4289703369141 C 44.74380493164062 166.9867858886719 42.83022308349609 158.2631683349609 34.55683898925781 144.0802612304688 C 28.87242126464844 134.3435821533203 22.96286010742188 132.823974609375 16.82817077636719 124.3817825317383 L 16.99699401855469 124.3817825317383 C 7.429168701171875 110.8742828369141 0 96.74764251708984 0 79.30042266845703 C 0 35.51356506347656 39.45333099365234 0 83.29660797119141 0 Z" stroke="none" fill="#ffdc00"/>
        </g>
        <path id="Path_16" data-name="Path 16" d="M7.879,15.759H28.141A7.9,7.9,0,0,0,36.02,7.879h0A7.9,7.9,0,0,0,28.141,0H7.879A7.9,7.9,0,0,0,0,7.879H0A7.9,7.9,0,0,0,7.879,15.759Z" transform="translate(65.287 218.372)" fill="#ffdc00"/>
        <path id="Path_17" data-name="Path 17" d="M7.879,15.759H50.653a7.9,7.9,0,0,0,7.879-7.879h0A7.9,7.9,0,0,0,50.653,0H7.879A7.9,7.9,0,0,0,0,7.879H0A7.9,7.9,0,0,0,7.879,15.759Z" transform="translate(54.03 193.608)" fill="#ffdc00"/>
      </g>
      <path id="Path_18" data-name="Path 18" d="M0,0S11.622,6.664,19.236,26.967,30.455,81.213,30.455,81.213" transform="translate(304.706 339.989) rotate(-8)" fill="none" stroke="#ffdc00" stroke-linecap="round" stroke-width="4"/>
      <path id="Path_19" data-name="Path 19" d="M30.455,0S18.833,6.664,11.219,26.967,0,81.213,0,81.213" transform="translate(354.971 332.925) rotate(-8)" fill="none" stroke="#ffdc00" stroke-linecap="round" stroke-width="4"/>
    </g>
  </g>
</svg>
